<?xml version="1.0" encoding="utf-8"?>
<!-- Generator: Adobe Illustrator 27.1.1, SVG Export Plug-In . SVG Version: 6.00 Build 0)  -->
<svg version="1.1" id="Layer_1" xmlns="http://www.w3.org/2000/svg" xmlns:xlink="http://www.w3.org/1999/xlink" x="0px" y="0px"
	 viewBox="0 0 234.4 59.5" style="enable-background:new 0 0 234.4 59.5;" xml:space="preserve">
<style type="text/css">
	.st0{fill:#EC2127;}
	.st1{fill:#00954C;}
</style>
<g>
	<g>
		<path class="st0" d="M56.9,37.6c0-0.1,0-0.1,0-0.2c0-0.1,0-0.1,0-0.1l-0.1-0.4c0-0.3-0.1-0.6-0.2-0.8c-0.2-0.7-0.3-1.5-0.3-2.3
			l0-14.8L56,19v15.5c0,0.5-0.1,0.9-0.2,1.4c-0.2,0.6-0.3,1.1-0.4,1.4c-0.1-0.1-0.2-0.2-0.2-0.5v-0.3c0-0.6,0-1.2,0-1.8v-8.5
			c0,0,0,0.5,0,1.3c-0.7-0.7-1.4-1.3-2.1-1.9l0,0.3c0.8,0.6,1.5,1.2,2.2,1.9v3.9c-0.6-1.3-1.5-2.5-2.6-3.5l-0.1,0.2l0.3,0.2
			c1.1,1.1,1.9,2.3,2.4,3.6v3L55,35.3c-0.2-0.3-0.3-0.5-0.3-0.8v-0.2c0-0.1-0.1-0.4-0.2-1.1c0-0.1-0.1-0.3-0.2-0.6
			c-0.4-1.2-1.1-2.2-2-3.1l-0.2-0.1l0,0.1c-0.6,1.6-1.7,3-3.1,4.2c-1.1,0.8-2.3,1.4-3.7,1.8c-0.9,0.2-1.8,0.3-2.7,0.3
			c-1.7,0-3.4-0.4-4.9-1.1c-0.2-0.1-0.4-0.2-0.6-0.3c-0.1-0.1-0.2-0.1-0.3-0.2c-0.3-0.2-0.6-0.4-0.9-0.6c-1.5-1.1-2.7-2.5-3.5-4
			c-0.8-1.5-1.4-3.1-1.7-4.7l0-0.1c-0.1-0.6-0.1-1.1-0.2-1.6c0-0.1,0-0.1,0.1-0.2c0-0.1,0.1-0.1,0.1-0.1c0,0,0,0,0.1,0
			c0.1,0,0.2,0.1,0.2,0.3c0.1,0.2,0.2,0.4,0.3,0.6c0.1,0.4,0.3,0.9,0.4,1.3c0.1,0.4,0.3,0.8,0.4,1.3c0.1,0.2,0.2,0.5,0.3,0.7
			c0.1,0.3,0.2,0.6,0.4,0.9c0.4,1,0.8,1.8,1.3,2.4l0.2,0.4c0.7,0.9,1.4,1.6,2.3,2.3c0.5,0.3,1,0.6,1.4,0.9c0.3,0.2,0.9,0.4,1.6,0.6
			c0.4,0.1,0.9,0.2,1.3,0.3l0.3,0c0.2,0,0.4,0.1,0.6,0.1l0.7,0l1.3,0c0.7-0.1,1.6-0.2,2.5-0.6c2.2-0.9,3.7-2.5,4.7-4.6
			c0.1-0.2,0.3-0.7,0.5-1.5l0.1-0.5c0.1-0.4,0.2-0.7,0.2-1.1c0.1-0.6,0.1-1.2,0.1-1.8c0-1.5-0.2-2.9-0.8-4.3
			c-0.1-0.4-0.3-0.8-0.5-1.2h-0.3c0.1,0.2,0.3,0.6,0.5,1.1c0.1,0.4,0.3,0.8,0.4,1.2l0.1,0.4c0.2,0.9,0.3,1.9,0.3,2.8
			c0,2.7-0.8,5.1-2.5,7.1c-1.3,1.4-2.9,2.3-4.8,2.7l-0.2,0c-0.5,0.1-1,0.1-1.5,0.1c-0.8,0-1.4-0.1-1.9-0.2l-0.5-0.1l-1.3-0.4
			c-1.9-0.8-3.4-1.9-4.6-3.5c-1.5-2.2-2.4-4.5-2.7-7.1v-0.4c0-0.4,0-0.7,0.2-0.7l0.1,0c0.1,0,0.2,0.1,0.3,0.3
			c0.1,0.2,0.2,0.5,0.2,0.7l0.8,1.5l0.2,0.4c-0.1-0.5-0.1-1-0.2-1.5c0,0,0-0.1,0-0.1l0,0h0c0,0,0.1,0,0.1,0c0,0,0,0,0.1,0.1l1,2.7
			c0.6,2,1.7,3.6,3.3,4.8c1.4,1,3,1.6,4.8,1.6l1,0l0.9-0.1l0.7-0.2c0.3-0.1,0.5-0.2,0.7-0.3c0.2-0.1,0.4-0.2,0.6-0.3
			c0.3-0.2,0.5-0.4,0.7-0.6c1.6-1.6,2.4-3.7,2.4-6.2c0-1.3-0.2-2.5-0.7-3.7c-0.2-0.7-0.5-1.3-1-1.8c0,0-0.1,0-0.3,0l0.1,0.2
			c0.5,0.7,0.9,1.6,1.2,2.6c0.2,1,0.4,1.9,0.4,2.7c0,1.1-0.2,2.3-0.6,3.4c-0.6,1.5-1.5,2.6-2.7,3.4c-0.6,0.4-1.3,0.6-2,0.7
			c-0.1,0-0.2,0-0.2,0c-0.1,0-0.3,0-0.6,0c-0.3,0-0.5,0-0.5,0l-0.9,0c-1.5-0.2-2.9-0.8-4.1-1.8c-2.3-2-3.4-4.8-3.4-8.4
			c0-0.2,0-0.4,0-0.4c0,0,0,0,0.1-0.1v0l0,0.1c0,0.1,0.1,0.3,0.2,0.6c0.2,1.1,0.5,2.2,0.9,3.3c0.5,1.6,1.3,3,2.5,4.1
			c0.2,0.2,0.4,0.4,0.6,0.5l0.3,0.2c0.1,0,0.2,0.1,0.4,0.2c0.4,0.2,0.8,0.4,1.4,0.6l0.3,0.1c0.7,0.1,1.3,0.2,1.8,0.2
			c0.5,0,0.7,0,0.8,0l0.7-0.1c0.1,0,0.2,0,0.3-0.1c0.1,0,0.2-0.1,0.3-0.1c0.8-0.3,1.5-0.8,2.1-1.5c0.6-0.7,1-1.5,1.3-2.5
			c0.2-0.8,0.4-1.7,0.4-2.6c0-1.3-0.3-2.6-0.8-3.9c-0.2-0.4-0.4-0.8-0.7-1.1c-0.8-0.8-1.7-1.2-2.9-1.2c-0.9,0-1.7,0.2-2.4,0.6
			c0,0-0.1,0-0.1,0.1h-0.1c-0.5,0.3-0.8,0.7-0.9,1.1c0.7-0.7,1.6-1.1,2.7-1.1l0.4,0c1.1,0.2,1.9,0.6,2.5,1.3
			c0.6,0.7,0.9,1.5,0.9,2.4c0,1.1-0.4,1.9-1.1,2.7c-0.4,0.8-1.3,1.4-2.7,1.8c-0.4,0.1-0.8,0.1-1.2,0.1c-0.2,0-0.5,0-0.8-0.1
			c0,0-0.2,0-0.5-0.1c-0.3-0.1-0.5-0.1-0.5-0.1c-0.1,0-0.3-0.1-0.5-0.2c-0.7-0.3-1.2-0.6-1.7-1.1c-1.3-1.3-1.9-2.9-1.9-4.8
			c0-0.7,0.1-1.3,0.2-1.9l0-0.1H31c-0.2,0-0.3-0.1-0.3-0.2c0,0,0-0.1,0-0.1c0-0.1,0-0.2,0.1-0.3c0.1-0.1,0.2-0.1,0.3-0.1
			c0.2,0,1.2,0,3.1,0h2.6l0.2-0.4c-0.1,0-0.8,0-2.2,0c-2.3,0-3.5,0-3.8,0c-0.2,0-0.4-0.2-0.4-0.4l0-0.3c0-0.6,0.1-0.9,0.4-0.9
			c0.2,0,0.5-0.1,0.8-0.1h5.7l0.7,0c0,0,0.1,0,0.2,0s0.1,0,0.1,0c0,0,0-0.1,0.1-0.1c0,0,0,0,0,0c0,0-0.1,0-0.2-0.1l-0.3,0h-6.5
			c-0.5,0-0.7-0.1-0.7-0.4c0-0.1,0.1-0.2,0.2-0.3H31c0.2,0,0.5-0.1,1.1-0.1h8.4c1.2-0.5,2.5-0.8,3.7-0.8c1.4,0,2.6,0.3,3.8,0.8h7.3
			v-0.1l0.9,0v0h0.2v0l1.8-0.1v0.2c0.1,0,0.2,0,0.2,0.1v-0.3c0.2,0,0.4,0,0.7-0.1c0,0.2,0,0.8,0,1.7V37c0,0.1,0,0.2,0,0.3
			c0,0.1-0.1,0.1-0.2,0.1c-0.1,0-0.2-0.2-0.2-0.6l-0.2-1.6c0-0.4,0-5.7,0-16L58,19.1v14.5c0,0.8,0,1.5-0.1,2.3
			c0,0.6-0.1,1.1-0.1,1.7c-0.1-0.3-0.2-0.7-0.3-1.2l-0.1-1.1c-0.1,0.1-0.1,0.2-0.1,0.3v0.1c0,0.1,0,0.3,0,0.6c0,0.4,0,0.7-0.1,1.1
			c0,0.2-0.1,0.4-0.1,0.5C57,37.7,56.9,37.7,56.9,37.6z M43.9,26.6c-0.2,0-0.4,0.1-0.6,0.1c-0.8,0-1.6-0.2-2.2-0.7
			c-0.5-0.1-0.8-0.2-1-0.3c-0.2-0.1-0.4-0.2-0.6-0.3c-1.4-0.9-2.1-2.4-2.1-4.4c0-0.7,0.1-1.3,0.3-1.9h-0.2c-0.1,0.4-0.2,0.9-0.3,1.6
			V21c0,1.3,0.3,2.4,1,3.4c0.8,1.2,2.1,2,3.7,2.4c0.2,0,0.4,0.1,0.7,0.1C43,26.8,43.4,26.7,43.9,26.6z M39.8,21.4l0-0.4
			c0-0.4,0-0.7,0.1-0.9s0.1-0.3,0.1-0.4l0,0c0.1-0.2,0.2-0.4,0.4-0.6h-0.4c-0.2,0.3-0.3,0.5-0.4,0.8c-0.1,0.4-0.1,0.8-0.1,1.2
			c0,0.3,0,0.6,0.1,0.9C39.7,21.8,39.7,21.6,39.8,21.4z M54.2,15.9L54.2,15.9L54.2,15.9c0-0.2-0.3-0.3-1-0.3h-2.7
			c-0.2,0-0.4,0-0.4,0s-0.1,0.1-0.1,0.1v0c0,0,0,0,0,0.1c0,0,0,0.1,0,0.1c0.1,0.1,0.3,0.1,0.4,0.1h3.2C53.9,16,54,15.9,54.2,15.9z
			 M52.9,18.2H54c0,0,0.1,0,0.2-0.1l0-0.1c0,0,0,0-0.1-0.1c0,0-0.3-0.1-0.8-0.1c-0.9,0-1.4,0-1.5,0c0,0-0.1,0.1-0.1,0.1
			c0,0,0,0.1,0.1,0.1c0,0,0.1,0.1,0.1,0.1L52.9,18.2L52.9,18.2L52.9,18.2L52.9,18.2z M55.2,21.7l0-1.2v-1.3l-0.8-0.1
			C54,19,53.7,19,53.4,19h-1.5l0.5,1.2c0.4,1.3,0.6,2.5,0.7,3.8v0.4c0.8,0.5,1.5,1.1,2.1,1.7C55.2,26.1,55.2,21.7,55.2,21.7z
			 M60.3,13.2c0-0.4,0-0.7,0-1.1c0,0,0-0.1,0-0.1s0-0.1,0.1-0.1c0,0,0.1,0,0.1,0c0,0,0.1,0,0.1,0c0,0,0.1,0,0.1,0.1c0,0,0,0.1,0,0.1
			c0,0,0,0,0,0c0.1,0.2,0.1,0.5,0.2,0.8c0,0.3,0,0.7,0,1v7.8c0,6.4,0,12.7,0,19.1c0,0.9-0.1,1.9-0.3,2.8c0,0.1-0.1,0.3-0.1,0.5
			c0,0.1,0,0.2,0,0.3c-0.1-0.1-0.1-0.2-0.2-0.3c0-0.1,0-0.2,0-0.2v-0.1c0-0.2,0-0.4,0-0.6c0-0.9,0-1.8,0-2.6L60.3,13.2L60.3,13.2z
			 M62.7,44.2c0-0.3-0.1-0.5-0.1-0.7c0,0,0,0,0-0.1h0c0,0,0,0-0.1,0c0,0,0,0,0,0.1L62.3,44c0,0.2,0,0.4-0.1,0.6c0,0,0,0,0,0.1
			s0,0-0.1,0h0c0,0,0,0,0,0c0,0,0,0,0,0h0c0-0.2-0.1-0.4-0.1-0.6c-0.1-0.6-0.3-1.3-0.4-1.9c0-0.3-0.1-0.6-0.1-0.9V13.5
			c0-0.4,0-0.8,0-1.2c0-0.1,0-0.3,0-0.4c0-0.1,0-0.1,0.1-0.1c0,0,0-0.1,0.1-0.1c0,0,0.1,0,0.1,0c0,0,0.1,0.1,0.1,0.1
			c0.1,0.2,0.2,0.4,0.3,0.6l0.2,0.4c0,0.1,0.1,0.1,0.1,0.1c0,0,0,0,0,0.1c0-0.1,0.1-0.1,0.1-0.2c0-0.1,0-0.1,0-0.2
			c0-0.1,0-0.3,0-0.5c0,0,0.1-0.1,0.1,0c0,0,0,0,0,0.1c0,0,0,0.1,0,0.1c0,0,0,0.1,0,0.1c0,0.3,0.1,0.6,0.1,0.9c0,0.4,0,0.8,0,1.2v12
			c0,4.8,0,9.6,0,14.5c0,1.1,0,2.1-0.2,3.2c0,0,0,0.1,0,0.2c0,0,0,0.1,0,0.2C62.7,44.3,62.7,44.2,62.7,44.2z M63.3,14.6
			c0-0.9,0-1.8,0-2.7c0-0.1,0-0.3,0-0.5c0,0,0-0.1,0-0.1l0,0h0c0,0,0,0,0.1,0c0,0,0,0,0.1,0c0,0.1,0,0.1,0,0.2l0,0.2l0.1,0.9
			c0,0.4,0,0.7,0,1.1c0,9.6,0,19.3,0,28.9v1.1c0,0.1,0,0.3,0,0.4v0.1c0,0.1,0,0.1-0.1,0.1c0,0-0.1,0-0.1,0c0,0-0.1,0-0.1-0.1
			c0,0,0-0.1-0.1-0.1c0-0.2-0.1-0.3-0.1-0.5c0-0.2,0-0.5,0-0.7c0-0.8,0-1.5,0-2.3L63.3,14.6L63.3,14.6z"/>
		<path class="st0" d="M71.7,37.6c-2.1-0.8-3.8-2.3-5.1-4.4c-0.5-0.9-0.8-1.4-0.8-1.5c-0.2-0.5-0.4-1-0.4-1.4c0-0.3,0.1-0.6,0.4-0.8
			c1.7-1.3,2.6-2,2.8-2.1c0.1,0.1,0.2,0.2,0.2,0.2c0,0.5,0.1,1,0.2,1.5c0.4,1.5,1.2,2.7,2.3,3.4c1.1,0.8,2.2,1.2,3.3,1.2
			c0.3,0,0.7,0,1.1-0.1c2.4-0.5,4-2.2,4.7-4.8c0.1-0.5,0.2-0.9,0.2-1.1c0-0.4-0.2-0.6-0.5-0.6c-0.1,0-0.2,0-0.3,0
			c-0.1,0-0.2,0-0.2,0.1c-0.1,0-0.1,0-0.1,0.1l-0.8,0.2l-2.4,0.7c-0.2,0.1-0.5,0.1-0.7,0.1c-0.2,0-0.3-0.1-0.3-0.3
			c0-0.2,0.1-0.4,0.3-0.5c0.2-0.1,0.4-0.2,0.7-0.2c0.2-0.1,0.5-0.1,0.8-0.2l0.5-0.1c0.3-0.1,0.6-0.2,0.9-0.4c0.5,0,1.1-0.1,1.6-0.3
			c0,0,0.1,0,0.1-0.1v0c0,0,0,0,0-0.1c0,0,0,0,0,0c-0.5,0-1,0.2-1.5,0.5c-0.5,0-1,0.1-1.5,0.2c-0.6,0.2-1,0.3-1.2,0.3
			c-0.3,0-0.5-0.2-0.5-0.5c0-0.2,0-0.4,0-0.6c-0.1-1.4-0.2-2.7-0.4-4c-0.1-0.8-0.2-1.3-0.2-1.3c0,0,0-0.1,0-0.1
			c0-0.1-0.1-0.1-0.2-0.1c0,0-0.1,0-0.1,0s-0.1,0-0.1,0c-0.2,0.1-0.7,0.7-1.6,1.8c-0.2,0.2-0.2,0.4-0.2,0.5c0,0.3,0.3,0.8,1,1.7
			c0.1,0.2,0.2,0.4,0.2,0.4s0,0.1,0,0.2c0,0.1-0.1,0.1-0.1,0.1c-0.1,0-0.2,0-0.2,0c-0.3-0.4-0.7-0.7-1-1.2c-0.1-0.1-0.2-0.2-0.4-0.3
			l0-0.1h0l-0.1,0.1l0,0.1l0.2,0.4c0.5,0.8,0.8,1.2,0.9,1.4c0,0.1,0,0.1-0.1,0.2c0,0.1-0.1,0.1-0.1,0.1s-0.1,0.1-0.1,0.1
			c0,0,0,0.1,0,0.1c0,0,0,0.1-0.1,0.2c-0.1,0.2-0.3,0.4-0.4,0.4c-0.1,0-0.2,0-0.3-0.1c-0.5-0.3-0.9-0.7-1.2-1.2
			c-0.1-0.1-0.1-0.1-0.1-0.1c0,0-0.1,0-0.1,0v0h0v0c0,0.1,0,0.2,0.1,0.3s0.2,0.2,0.2,0.4c0.4,0.5,0.7,1.1,0.7,1.6
			c0,0.1,0,0.1-0.1,0.1v0c0,0-0.1,0.1-0.1,0.1c-0.1,0-0.1,0-0.2-0.1c0,0-0.1-0.1-0.2-0.2S70.6,27,70,26.2c-0.4-0.5-0.8-1.1-1.2-1.7
			l-0.6-0.9c0-0.1-0.1-0.1-0.1-0.2c0-0.2,0.2-0.5,0.7-1c2.1-2.5,3.6-4.1,4.4-5c0.2-0.2,0.4-0.5,0.6-0.7c0,0,0,0,0-0.1v-0.1h-0.1
			c0,0,0,0,0,0l-0.1,0c-0.2,0.2-0.5,0.5-0.7,0.7l-1.9,2.1c-1.7,2-2.8,3.2-3.1,3.5c-0.1,0-0.1,0.1-0.2,0.1c-0.2,0-0.4-0.1-0.4-0.5
			c0-0.1,1.4-1.8,4.2-5l1.5-1.7c0.2-0.2,0.3-0.4,0.5-0.5c0.2-0.2,0.4-0.3,0.6-0.3c0.4,0,0.8,0,1.2,0c0.7,0,1.3,0,1.9,0.1
			c0.2,0,0.3,0.1,0.3,0.3l0,0.1c0.1,0.4,0.2,0.8,0.3,1.2l0.4,2.5c0.1,1,0.2,2,0.4,3c0.1,0.6,0.2,0.9,0.5,0.9c0.1,0,0.6-0.1,1.4-0.3
			l1-0.2c0.4-0.2,0.8-0.3,1.2-0.3c0.2,0,0.3,0,0.4,0.1s0.1,0.2,0.2,0.4s0,0.4,0,0.5c0,0.4-0.1,0.7-0.2,1c-0.1,0.1-0.1,0.2-0.1,0.4
			c0,0.1,0,0.1,0,0.2v0.5c0,0.2,0,0.4,0.1,0.6c0.1,0.4,0.1,0.9,0.1,1.3c0,1.2-0.2,2.3-0.5,3.4L82.3,32l-2.2,2.9
			c-0.4,0.1-0.8,0.4-1.1,0.8L78,36.1c-1.1,0.5-2.2,0.7-3.3,0.7c-1.6,0-3.1-0.5-4.4-1.4c0,0-0.1-0.1-0.1-0.1
			c-0.2-0.2-0.4-0.3-0.7-0.4c-0.5-0.7-1-1.3-1.6-1.8c-0.1-0.4-0.3-0.9-0.6-1.2c0,0,0,0,0,0s0,0,0,0H67c0,0,0,0.1,0,0.2
			c0.2,0.4,0.4,0.8,0.8,1.1c0.3,0.8,0.8,1.4,1.5,1.8h0.1c0,0,0,0,0,0c0.3,0.6,1.1,1.1,2.3,1.7c1,0.4,2,0.6,3.1,0.6
			c1.3,0,2.6-0.3,3.8-1c0.2-0.1,0.3-0.3,0.5-0.5c0.5-0.1,0.8-0.4,1.1-0.8c0.2-0.1,0.4-0.2,0.5-0.3c0.5-0.5,0.9-1,1.2-1.6
			c0.2-0.3,0.3-0.6,0.4-0.9c0.3-0.3,0.6-0.7,0.7-1.1c0.1-0.2,0.1-0.3,0.2-0.5h0c0.1,0,0.1,0,0.1,0.1v0.1c0,0.2,0.1,0.6,0.1,1
			c0,0.6-0.1,1-0.2,1.3c-0.2,0.3-0.4,0.7-0.7,1.1c-1.9,2.8-4.6,4.2-7.8,4.2C73.6,38.1,72.6,38,71.7,37.6z M70.8,23l0.4-0.4L70.8,23
			L70.8,23z M74.2,19.4l0.1-0.2v-0.1c0,0,0-0.1-0.1-0.1c0,0,0,0-0.1,0c0,0-0.1,0-0.1,0.1c-1.4,1.5-2.1,2.4-2.1,2.4v0v0
			c0,0,0,0.1,0.1,0.1c0,0,0,0,0.1,0H72C72.1,21.7,72.8,21,74.2,19.4z M76.1,23.1c0,0,0-0.1,0-0.1c0-0.3-0.1-1.2-0.4-2.9v0
			c0-0.2-0.1-0.3-0.2-0.5v0.4c0,0.2,0.1,1.2,0.4,3.2c0,0,0,0,0.1,0.1l0,0.1h0C76,23.2,76.1,23.2,76.1,23.1z M78.1,22.8l0-0.2
			c0-0.1,0-0.2,0-0.3c0-0.1-0.1-0.5-0.2-1.1c-0.2-2.1-0.4-3.1-0.4-3.2c0-0.1,0-0.1,0-0.2c0-0.2-0.1-0.3-0.1-0.3s-0.1,0-0.1-0.1
			c0,0-0.1,0-0.1,0.1c0,0,0,0.1,0,0.1c0.4,3.4,0.7,5.1,0.7,5.1s0,0,0.1,0.1L78.1,22.8L78.1,22.8z M79.6,23.9
			C79.6,23.9,79.6,23.9,79.6,23.9c0-0.1-0.1-0.1-0.1-0.1c0,0,0,0,0,0c-0.1,0-0.1,0.1-0.2,0.1c0,0,0,0,0,0.1c0,0,0,0,0.1,0L79.6,23.9
			L79.6,23.9z"/>
		<path class="st0" d="M98,36.7c-8.4,0-12.8,0-13.1,0c-0.1,0-0.2-0.1-0.2-0.2c0-0.1,0.7-1.2,2.1-3.3L87,33c0.1-0.1,0.1-0.2,0.2-0.3
			c0.4-0.3,0.8-0.9,1.4-1.6c1.3-1.7,2.1-2.8,2.4-3.3l0.1-0.3l0,0c0,0-0.1-0.1-0.2-0.1c-0.1,0-0.1,0-0.1,0.1c0,0-0.1,0.1-0.1,0.1
			c0.1-0.3,0.1-0.5,0.1-0.7c0-0.4-0.1-0.9-0.3-1.2c-0.3-0.5-1.8-3.2-4.6-8.2c-0.6-1.1-0.9-1.7-1-1.9c-0.1-0.2-0.2-0.4-0.2-0.5
			c0-0.2,0.2-0.3,0.6-0.3h11.1c0.3,0,0.6,0,1,0c0.3,0,0.5,0.2,0.6,0.7c0,0.4,0,2.3,0,6c0,6.5,0,9.8,0,10.1v0.3l0.1,0.1
			c0.1,0,0.1-0.4,0.1-1.3v-14c0-0.8,0-1.3,0.1-1.5c0.1-0.2,0.2-0.4,0.5-0.4c0.2,0,0.3,0,0.5,0.1c0.1,0,0.1,0.1,0.2,0.1l0.1,0
			c0.2,0,0.2,0.1,0.2,0.2c0.1,0.3,0.1,0.9,0.1,1.7l0,0.9v4c0,8.9,0,13.3,0,13.4c0,0.1,0,0.2,0,0.2c0,0.3,0,0.5-0.1,0.8
			c-0.1,0.1-0.2,0.1-0.4,0.1c-0.2,0-0.3,0-0.3,0.1c-0.1,0.1-0.3,0.1-0.5,0.1L98,36.7L98,36.7z M91.3,25.1L91.3,25.1
			C91.3,25.1,91.3,25,91.3,25.1L91.3,25.1l-0.2-0.3c-0.1-0.3-0.2-0.5-0.4-0.6c-0.2-0.7-0.5-1.2-0.9-1.7c-0.1-0.3-0.2-0.5-0.4-0.6
			c-0.1-0.3-0.2-0.5-0.4-0.6c-0.1-0.3-0.2-0.5-0.4-0.6c-0.1-0.3-0.2-0.5-0.2-0.7c-0.1-0.1-0.1-0.3-0.2-0.3c-0.1-0.1-0.2-0.1-0.3-0.2
			c0.2,0.5,0.5,0.9,0.8,1.2c0,0.3,0.2,0.5,0.4,0.6c0.1,0.3,0.2,0.5,0.4,0.6c0.1,0.3,0.2,0.5,0.4,0.6c0.1,0.7,0.4,1.2,0.9,1.7
			c0.1,0.3,0.2,0.5,0.4,0.6c0,0,0,0.1,0,0.1c0,0,0,0.1,0,0.1C91.2,25.1,91.2,25.1,91.3,25.1C91.2,25.1,91.2,25.1,91.3,25.1
			L91.3,25.1C91.3,25.1,91.3,25.1,91.3,25.1z M96.6,35.8c0,0,0.1-0.1,0.1-0.1c0-0.1-0.3-0.2-0.7-0.2H90c-0.3,0-0.5,0.1-0.6,0.1
			c0,0,0,0,0,0.1c0,0,0,0.1,0.1,0.1c0,0,0.1,0,0.1,0l0.4,0.1h5.8C96.3,35.9,96.6,35.8,96.6,35.8z M96.7,15.6c0,0,0-0.1,0.1-0.1
			c0-0.1-0.1-0.1-0.1-0.1s-0.1,0-0.1,0c-0.1,0-0.3-0.1-0.4-0.1h-5.6c-0.3,0-0.6,0.1-1,0.2c0.1,0.1,0.3,0.2,0.5,0.2h6.2
			C96.5,15.7,96.6,15.6,96.7,15.6z M92.7,23.2l-0.1-0.1c-0.1-0.2-0.7-1.4-2-3.6c-0.1-0.1-0.2-0.3-0.3-0.4l-0.1,0c0,0,0,0,0,0
			s0,0,0,0.1c0,0,0,0.1,0,0.1c1.5,2.7,2.3,4.1,2.3,4.1c0,0,0.1,0,0.2,0L92.7,23.2z M90.4,32c0.2-0.2,0.4-0.4,0.5-0.7l0.1-0.1
			c0.4-0.3,0.8-0.7,0.9-1.3c0.3-0.3,0.4-0.4,0.4-0.5v0l-0.1,0l-0.2,0.5c-0.4,0.3-0.8,0.7-0.9,1.3c-0.3,0.3-0.5,0.5-0.6,0.6
			c0,0.1-0.1,0.2-0.1,0.3l0.1,0L90.4,32z M91.2,43.7c-0.6-0.7-0.9-1.5-0.9-2.6c0-1.1,0.3-2,0.9-2.7c0.6-0.7,1.4-1,2.3-1.1
			c0.9,0,1.7,0.4,2.3,1.1c0.6,0.7,0.9,1.6,0.9,2.6c0,1-0.3,1.9-1,2.6c-0.6,0.7-1.4,1.1-2.3,1.1C92.5,44.7,91.8,44.4,91.2,43.7z
			 M96.6,33.4L96.6,33.4c-0.8-0.1-2-0.2-3.7-0.2c-1.2,0-1.8,0-1.9,0.1h-0.1c0,0,0,0.1,0,0.1h0.2c0.1,0,1.8,0,5,0
			C96.4,33.6,96.6,33.5,96.6,33.4z M96.3,17.7C96.4,17.7,96.4,17.7,96.3,17.7c0-0.1,0-0.1,0.1-0.1c-0.3,0-0.9,0-1.6,0
			c-0.7,0-1.5,0-2.2,0c-0.7,0-1.3,0-1.6,0.1c0.5,0.1,1.7,0.1,3.7,0.1C95.8,17.8,96.3,17.8,96.3,17.7z M97,32.3
			c0.1-0.1,0.2-0.7,0.2-1.7v-7.5c0-1.4,0-2.5,0-3.2v-0.1c0-0.4-0.1-0.7-0.2-0.8c-0.1-0.1-0.4-0.2-0.7-0.2H92l-0.2,0
			c-0.2,0-0.4,0.1-0.5,0.2l0,0.2c0,0.2,0.1,0.5,0.2,0.7l0.1,0.2l3.5,6.3c0.1,0.1,0.1,0.2,0.1,0.3c0,0.2-0.2,0.5-0.6,1l-0.8,1.2
			c-1.5,2-2.3,3.1-2.3,3.3l0,0.1l0,0.1c0,0.1,0.1,0.2,0.2,0.2c0.3,0,1.8,0.1,4.5,0.1C96.6,32.6,96.9,32.5,97,32.3z M92.2,34.2
			c-0.1,0-0.1,0-0.2,0h0c0,0,0,0,0,0L92.2,34.2z M93.1,28.2C93.1,28.2,93.2,28.2,93.1,28.2l-0.1-0.1c0,0-0.1,0.1-0.1,0.2l0,0.1
			C93,28.3,93.1,28.3,93.1,28.2z M100.4,36.4c-0.1,0-0.1-0.2-0.1-0.5V16.5l0-1.1c0-0.2,0.1-0.3,0.3-0.3c0,0,0,0,0.1,0
			c0,0,0.1,0,0.1,0.1c0.1,0.2,0.1,0.7,0.1,1.5V35c0,0.7,0,1.1-0.1,1.4c-0.1,0.1-0.1,0.1-0.1,0.1C100.5,36.5,100.5,36.4,100.4,36.4z"
			/>
		<path class="st0" d="M102.4,13.2c0-0.4,0-0.7,0-1.1c0,0,0-0.1,0-0.1s0-0.1,0.1-0.1c0,0,0.1,0,0.1,0c0,0,0.1,0,0.1,0
			c0,0,0.1,0,0.1,0.1c0,0,0.1,0.1,0.1,0.1c0,0,0,0,0,0c0.1,0.2,0.1,0.5,0.2,0.8c0,0.3,0,0.7,0,1v7.8c0,6.4,0,12.7,0,19.1
			c0,0.9-0.1,1.9-0.3,2.8c-0.1,0.1-0.1,0.3-0.1,0.5c0,0.1,0,0.2-0.1,0.3c-0.1-0.1-0.1-0.2-0.2-0.3c0-0.1,0-0.2,0-0.2v-0.1
			c0-0.2,0-0.4,0-0.6c0-0.9,0-1.8,0-2.6L102.4,13.2L102.4,13.2z M104.8,44.2c0-0.3-0.1-0.5-0.1-0.7c0,0,0,0,0-0.1h-0.1
			c0,0,0,0-0.1,0c0,0,0,0,0,0.1l-0.1,0.6c0,0.2,0,0.4-0.1,0.6c0,0,0,0,0,0.1s-0.1,0-0.1,0h0c0,0,0,0,0,0c0,0,0,0,0,0h0
			c0-0.2-0.1-0.4-0.1-0.6c-0.1-0.6-0.3-1.3-0.4-1.9c-0.1-0.3-0.1-0.6-0.1-0.9V13.5c0-0.4,0-0.8,0-1.2c0-0.1,0-0.3,0.1-0.4
			c0-0.1,0-0.1,0.1-0.1c0,0,0.1-0.1,0.1-0.1c0,0,0.1,0,0.1,0c0,0,0.1,0.1,0.1,0.1c0.1,0.2,0.2,0.4,0.3,0.6l0.2,0.4
			c0,0.1,0.1,0.1,0.1,0.1c0,0,0,0,0.1,0.1c0.1-0.1,0.1-0.1,0.1-0.2c0-0.1,0-0.1,0.1-0.2c0-0.1,0-0.3,0-0.5c0.1,0,0.1-0.1,0.1,0
			c0,0,0,0,0,0.1c0,0,0,0.1,0,0.1c0,0,0,0.1,0,0.1c0.1,0.3,0.1,0.6,0.1,0.9c0,0.4,0,0.8,0,1.2v12c0,4.8,0,9.6,0,14.5
			c0,1.1,0,2.1-0.2,3.2c0,0,0,0.1,0,0.2c0,0,0,0.1-0.1,0.2C104.8,44.3,104.8,44.2,104.8,44.2z M105.5,14.6c0-0.9,0-1.8,0-2.7
			c0-0.1,0-0.3,0.1-0.5c0,0,0-0.1,0-0.1l0,0h0.1c0,0,0,0,0.1,0c0,0,0.1,0,0.1,0c0,0.1,0.1,0.1,0.1,0.2l0.1,0.2l0.1,0.9
			c0,0.4,0,0.7,0,1.1c0,9.6,0,19.3,0,28.9v1.1c0,0.1,0,0.3,0,0.4v0.1c0,0.1,0,0.1-0.1,0.1c0,0-0.1,0-0.1,0c0,0-0.1,0-0.1-0.1
			c0,0-0.1-0.1-0.1-0.1c-0.1-0.2-0.1-0.3-0.1-0.5c0-0.2,0-0.5,0-0.7c0-0.8-0.1-1.5-0.1-2.3L105.5,14.6L105.5,14.6z"/>
		<path class="st0" d="M120.4,36.8c-0.1-0.1-0.2-0.2-0.2-0.5c0-0.2,0-0.5,0-0.7v-0.4c0-3.3,0-8,0-14l0-0.6c0-0.4,0-0.7,0-0.8
			c0-0.1-0.1-0.2-0.1-0.2l-0.1,0.1c0,0.2-0.1,0.7-0.1,1.5v13.9c0,0.4,0,0.8-0.1,1.2c0,0.4-0.3,0.6-0.7,0.6c-0.3,0-0.5-0.1-0.7-0.3
			l-0.5-0.4c-1.4-1.1-2.9-1.7-4.5-1.7c-1.3,0-2.5,0.3-3.7,1c-1,0.6-1.5,0.8-1.6,0.8c-0.1,0-0.2,0-0.2,0c0,0,0-0.1,0.1-0.1
			c0,0,0.1-0.1,0.1-0.1c0,0,0.1-0.1,0.2-0.2c0.2,0,0.3-0.1,0.5-0.3v-0.1l-0.1,0l-0.3,0.4c0,0-0.1,0.1-0.2,0.2l-0.2,0.2
			c-0.2-0.1-0.3-0.3-0.3-0.5c0-0.2,0-3.9,0-11c0-0.2,0-0.5,0.1-0.7c0.1-0.4,0.3-0.5,0.8-0.5l0.4,0c0.3,0,3.2,0,8.6,0
			c0.2,0,0.6,0,1,0c0,0,0.1-0.1,0.1-0.1c0-0.1-0.3-0.1-1-0.1h-8.3c-0.3,0-0.7,0-1,0c-0.3,0-0.5-0.2-0.5-0.6v-0.4
			c0-0.3,0-0.6,0.1-0.7c0.1-0.1,0.3-0.2,0.7-0.2h9.1c0.3,0,0.5,0,0.8-0.1c0.2,0,0.3,0,0.3,0l0,0c0,0,0,0,0-0.1c0,0,0-0.1-0.1-0.1
			c-0.1-0.1-0.4-0.1-0.9-0.1h-7.4l-1.5,0.1l-0.2,0c-0.4,0-0.6-0.1-0.7-0.3c0-0.1-0.1-0.1-0.1-0.1c0,0,0-0.1,0.1-0.2
			c0.1-0.1,0.2-0.1,0.4-0.1h9.3c0.3,0,0.7,0,1-0.1c0.3,0,0.5-0.2,0.5-0.6c0-0.4-0.2-0.7-0.5-0.7c-0.3,0-3.6,0-9.7,0l-0.9-0.1
			c-0.2,0-0.3-0.2-0.3-0.4c0-0.3,0.2-0.5,0.6-0.5c0.3,0,2.3,0,6,0c2.3,0,3.7,0,4,0l0.3-0.1c-0.2-0.1-0.5-0.1-0.7-0.1h-9.5
			c-0.3,0-0.6-0.1-0.7-0.2c-0.1-0.1-0.1-0.2-0.1-0.3s0-0.2,0-0.3c0-0.5,0.1-0.8,0.2-0.9c0.1-0.1,0.5-0.1,1.3-0.1h8.4
			c0.3,0,0.5,0,0.8,0c0.2,0,0.4-0.1,0.4-0.2c-0.1-0.1-0.2-0.1-0.2-0.1l-0.8,0c-0.2,0-0.4,0-0.7,0c-0.2,0-0.5,0-0.7,0l-0.7,0
			c-0.4,0-2-0.1-4.7-0.1h-2.5c-0.2,0-0.4-0.1-0.5-0.2c0,0-0.1-0.1-0.1-0.1c0-0.2,0.1-0.3,0.4-0.3h13.1l0.3,0c0.4,0,0.7,0.1,0.9,0.2
			c0.1,0.1,0.2,0.4,0.2,0.6v19.8c0,0.8-0.1,1.2-0.2,1.3l-0.1,0c-0.1,0-0.2-0.2-0.3-0.6V21c0-0.7,0-1.1-0.1-1.3l-0.1-0.1
			c0,0,0,0-0.1,0c0,0,0,0,0,0.1l-0.1,0.3v15.1c0,0.4,0,0.8,0,1.1c0,0.1,0,0.3-0.1,0.5l-0.9,0.2C120.6,37,120.5,36.9,120.4,36.8z
			 M108.6,31.2c0,0,0.1-0.1,0.1-0.4l-0.1-1.8l0-1.2c0-0.4,0-0.9-0.1-1.3l0-1l0-0.1c0,0-0.1-0.1-0.1-0.1c0,0.1,0,0.1-0.1,0.2
			c0,0,0,1.8,0,5.4c0,0.2,0,0.3,0,0.4c0,0,0.1,0.1,0.1,0.1L108.6,31.2C108.5,31.2,108.5,31.2,108.6,31.2z M110.5,30.4
			c0,0,0.1-0.2,0.1-0.7v-4.1l-0.1-0.4c0,0,0-0.1,0-0.1c0,0,0-0.1,0-0.1l-0.1,0c0,0-0.1,0-0.1,0c0,0,0,0,0,0c0,0.1-0.1,1.8-0.1,5
			c0,0.1,0,0.1,0,0.2s0,0.1,0.1,0.1C110.3,30.4,110.4,30.4,110.5,30.4L110.5,30.4C110.4,30.4,110.4,30.4,110.5,30.4z M111.3,42.1
			c-0.6-0.7-0.9-1.5-0.9-2.6c0-1.1,0.3-2,0.9-2.7c0.6-0.7,1.4-1,2.3-1.1c0.9,0,1.7,0.4,2.3,1.1c0.6,0.7,0.9,1.6,0.9,2.6
			c0,1-0.3,1.9-1,2.6c-0.6,0.7-1.4,1.1-2.3,1.1C112.6,43.1,111.9,42.7,111.3,42.1z M118.9,31.7c0.1,0,0.1-0.1,0.1-0.1
			c0-0.1,0-0.1,0-0.1l0.1-0.6v-5l-0.1-0.6c-0.1-0.3-0.2-0.5-0.5-0.6s-0.5-0.1-0.8-0.1h-2.6v0l-0.9,0l-2.3,0c-0.3,0-0.5,0.1-0.6,0.2
			c-0.1,0.1-0.2,0.4-0.2,0.8c0,2.7,0,4.2,0,4.3c0,0.4,0.1,0.6,0.4,0.6c0.2,0,0.6,0,1.3-0.1l0.8,0c0.8,0,1.6,0.1,2.3,0.3
			c0.7,0.2,1.4,0.5,2,0.8c0.4,0.2,0.6,0.3,0.7,0.3C118.8,31.7,118.9,31.7,118.9,31.7z M112.3,33.7L112.3,33.7L112.3,33.7L112.3,33.7
			z M113.7,33.5L113.7,33.5L113.7,33.5c-0.1-0.1-0.2-0.1-0.2-0.1l0,0C113.5,33.5,113.6,33.6,113.7,33.5
			C113.7,33.6,113.7,33.6,113.7,33.5z M116.8,34.2l0.2,0.1l0.5,0.3L116.8,34.2z M118.4,35.3L118.4,35.3l0.2,0.2L118.4,35.3z
			 M121.4,31.5L121.4,31.5L121.4,31.5L121.4,31.5z"/>
		<path class="st1" d="M143.4,36.8c-0.1-0.1-0.2-0.2-0.2-0.5c0-0.2,0-0.5,0-0.7v-0.4c0-3.3,0-8,0-14l0-0.6c0-0.4,0-0.7,0-0.8
			c0-0.1-0.1-0.2-0.1-0.2l0,0.1c0,0.2-0.1,0.7-0.1,1.5v13.9c0,0.4,0,0.8-0.1,1.2c0,0.4-0.3,0.6-0.7,0.6c-0.3,0-0.5-0.1-0.7-0.3
			l-0.5-0.4c-1.4-1.1-2.9-1.7-4.5-1.7c-1.3,0-2.5,0.3-3.7,1c-1,0.6-1.5,0.8-1.6,0.8c-0.1,0-0.2,0-0.2,0c0,0,0-0.1,0.1-0.1
			c0,0,0.1-0.1,0.1-0.1c0,0,0.1-0.1,0.2-0.2c0.2,0,0.3-0.1,0.5-0.3v-0.1l-0.1,0l-0.3,0.4c0,0-0.1,0.1-0.2,0.2l-0.2,0.2
			c-0.2-0.1-0.3-0.3-0.3-0.5c0-0.2,0-3.9,0-11c0-0.2,0-0.5,0.1-0.7c0.1-0.4,0.3-0.5,0.8-0.5l0.4,0c0.4,0,3.2,0,8.6,0
			c0.2,0,0.6,0,1,0c0,0,0.1-0.1,0.1-0.1c0-0.1-0.3-0.1-1-0.1h-8.3c-0.4,0-0.7,0-1,0c-0.4,0-0.5-0.2-0.5-0.6v-0.4
			c0-0.3,0-0.6,0.1-0.7c0.1-0.1,0.3-0.2,0.7-0.2h9.1c0.3,0,0.5,0,0.8-0.1c0.2,0,0.3,0,0.3,0l0,0c0,0,0,0,0-0.1c0,0,0-0.1-0.1-0.1
			c-0.1-0.1-0.4-0.1-0.9-0.1h-7.4l-1.5,0.1l-0.2,0c-0.4,0-0.6-0.1-0.7-0.3c0-0.1-0.1-0.1-0.1-0.1c0,0,0-0.1,0.1-0.2
			c0.1-0.1,0.2-0.1,0.4-0.1h9.3c0.4,0,0.7,0,1-0.1c0.3,0,0.5-0.2,0.5-0.6c0-0.4-0.2-0.7-0.5-0.7c-0.3,0-3.6,0-9.7,0l-0.9-0.1
			c-0.2,0-0.3-0.2-0.3-0.4c0-0.3,0.2-0.5,0.6-0.5c0.4,0,2.4,0,6,0c2.4,0,3.7,0,4,0l0.3-0.1c-0.2-0.1-0.5-0.1-0.7-0.1h-9.5
			c-0.4,0-0.6-0.1-0.7-0.2c-0.1-0.1-0.1-0.2-0.1-0.3s0-0.2,0-0.3c0-0.5,0.1-0.8,0.1-0.9c0.1-0.1,0.5-0.1,1.3-0.1h8.4
			c0.3,0,0.5,0,0.8,0c0.2,0,0.4-0.1,0.4-0.2c-0.1-0.1-0.2-0.1-0.2-0.1l-0.8,0c-0.2,0-0.4,0-0.6,0c-0.2,0-0.5,0-0.7,0l-0.7,0
			c-0.4,0-2-0.1-4.7-0.1h-2.5c-0.2,0-0.4-0.1-0.5-0.2c0,0-0.1-0.1-0.1-0.1c0-0.2,0.1-0.3,0.4-0.3h13.1l0.3,0c0.4,0,0.7,0.1,0.9,0.2
			c0.1,0.1,0.2,0.4,0.2,0.6v19.8c0,0.8-0.1,1.2-0.2,1.3l-0.1,0c-0.1,0-0.2-0.2-0.3-0.6V21c0-0.7,0-1.1-0.1-1.3l-0.1-0.1
			c0,0,0,0-0.1,0s0,0,0,0.1l-0.1,0.3v15.1c0,0.4,0,0.8,0,1.1c0,0.1,0,0.3-0.1,0.5l-0.9,0.2C143.7,37,143.5,36.9,143.4,36.8z
			 M131.6,31.2c0,0,0.1-0.1,0.1-0.4l-0.1-1.8l0-1.2c0-0.4,0-0.9-0.1-1.3l0-1l0-0.1c0,0-0.1-0.1-0.1-0.1c0,0.1,0,0.1-0.1,0.2
			s0,1.8,0,5.4c0,0.2,0,0.3,0,0.4c0,0,0.1,0.1,0.1,0.1L131.6,31.2C131.6,31.2,131.6,31.2,131.6,31.2z M133.5,30.4
			c0,0,0.1-0.2,0.1-0.7v-4.1l-0.1-0.4c0,0,0-0.1,0-0.1c0,0,0-0.1,0-0.1l-0.1,0c0,0-0.1,0-0.1,0c0,0,0,0,0,0c0,0.1-0.1,1.8-0.1,5
			c0,0.1,0,0.1,0,0.2s0,0.1,0.1,0.1C133.4,30.4,133.4,30.4,133.5,30.4L133.5,30.4C133.5,30.4,133.5,30.4,133.5,30.4z M142,31.7
			c0.1,0,0.1-0.1,0.1-0.1c0-0.1,0-0.1,0-0.1l0.1-0.6v-5l-0.1-0.6c-0.1-0.3-0.2-0.5-0.5-0.6s-0.5-0.1-0.8-0.1h-2.6v0l-0.9,0l-2.3,0
			c-0.3,0-0.5,0.1-0.6,0.2c-0.1,0.1-0.2,0.4-0.2,0.8c0,2.7,0,4.2,0,4.3c0,0.4,0.1,0.6,0.4,0.6c0.2,0,0.6,0,1.3-0.1l0.8,0
			c0.8,0,1.6,0.1,2.4,0.3c0.7,0.2,1.4,0.5,2,0.8c0.4,0.2,0.6,0.3,0.7,0.3C141.9,31.7,141.9,31.7,142,31.7z M135.4,33.7L135.4,33.7
			L135.4,33.7L135.4,33.7z M136.8,33.5L136.8,33.5L136.8,33.5c-0.1-0.1-0.2-0.1-0.2-0.1l0,0C136.6,33.5,136.6,33.6,136.8,33.5
			C136.8,33.6,136.8,33.6,136.8,33.5z M139.8,34.2l0.2,0.1l0.5,0.3L139.8,34.2z M141.5,35.3L141.5,35.3l0.2,0.2L141.5,35.3z
			 M144.4,31.5L144.4,31.5L144.4,31.5L144.4,31.5z"/>
		<path class="st1" d="M147.4,13.2c0-0.4,0-0.7,0-1.1c0,0,0-0.1,0-0.1s0-0.1,0.1-0.1c0,0,0.1,0,0.1,0c0,0,0.1,0,0.1,0
			c0,0,0.1,0,0.1,0.1c0,0,0.1,0.1,0.1,0.1c0,0,0,0,0,0c0.1,0.2,0.1,0.5,0.2,0.8c0,0.3,0,0.7,0,1v7.8c0,6.4,0,12.7,0,19.1
			c0,0.9-0.1,1.9-0.3,2.8c-0.1,0.1-0.1,0.3-0.1,0.5c0,0.1,0,0.2-0.1,0.3c-0.1-0.1-0.1-0.2-0.2-0.3c0-0.1,0-0.2,0-0.2v-0.1
			c0-0.2,0-0.4,0-0.6c0-0.9,0-1.8,0-2.6L147.4,13.2L147.4,13.2z M149.8,44.2c0-0.3-0.1-0.5-0.1-0.7c0,0,0,0,0-0.1h-0.1
			c0,0,0,0-0.1,0c0,0,0,0,0,0.1l-0.1,0.6c0,0.2,0,0.4-0.1,0.6c0,0,0,0,0,0.1s-0.1,0-0.1,0h0c0,0,0,0,0,0c0,0,0,0,0,0h0
			c0-0.2-0.1-0.4-0.1-0.6c-0.1-0.6-0.3-1.3-0.4-1.9c-0.1-0.3-0.1-0.6-0.1-0.9V13.5c0-0.4,0-0.8,0-1.2c0-0.1,0-0.3,0.1-0.4
			c0-0.1,0-0.1,0.1-0.1c0,0,0.1-0.1,0.1-0.1c0,0,0.1,0,0.1,0c0,0,0.1,0.1,0.1,0.1c0.1,0.2,0.2,0.4,0.3,0.6l0.2,0.4
			c0,0.1,0.1,0.1,0.1,0.1c0,0,0,0,0.1,0.1c0.1-0.1,0.1-0.1,0.1-0.2c0-0.1,0-0.1,0.1-0.2c0-0.1,0-0.3,0-0.5c0.1,0,0.1-0.1,0.1,0
			c0,0,0,0,0,0.1c0,0,0,0.1,0,0.1c0,0,0,0.1,0,0.1c0.1,0.3,0.1,0.6,0.1,0.9c0,0.4,0,0.8,0,1.2v12c0,4.8,0,9.6,0,14.5
			c0,1.1,0,2.1-0.2,3.2c0,0,0,0.1,0,0.2c0,0,0,0.1-0.1,0.2C149.8,44.3,149.8,44.2,149.8,44.2z M150.4,14.6c0-0.9,0-1.8,0-2.7
			c0-0.1,0-0.3,0.1-0.5c0,0,0-0.1,0-0.1l0,0h0.1c0,0,0,0,0.1,0c0,0,0.1,0,0.1,0c0,0.1,0.1,0.1,0.1,0.2l0.1,0.2l0.1,0.9
			c0,0.4,0,0.7,0,1.1c0,9.6,0,19.3,0,28.9v1.1c0,0.1,0,0.3,0,0.4v0.1c0,0.1,0,0.1-0.1,0.1c0,0-0.1,0-0.1,0c0,0-0.1,0-0.1-0.1
			c0,0-0.1-0.1-0.1-0.1c-0.1-0.2-0.1-0.3-0.1-0.5c0-0.2,0-0.5,0-0.7c0-0.8-0.1-1.5-0.1-2.3L150.4,14.6L150.4,14.6z"/>
		<path class="st1" d="M155.4,26.5c-1.1-0.6-2-1.6-2.6-2.9c-0.2-0.5-0.4-1.1-0.4-1.7v-1.1h0v-1.3c0-0.4,0.1-0.9,0.3-1.3
			c1-2.3,2.6-3.5,4.9-3.5h0.4c0.6,0,1.2,0.1,1.8,0.5c2.1,1.1,3.2,3,3.3,5.6c0,1.6-0.4,3-1.1,4c-0.8,1-1.6,1.7-2.6,2
			c-0.6,0.1-1.1,0.2-1.6,0.2C156.9,27.1,156.1,26.9,155.4,26.5z M161.8,38.6c-0.1,0-0.1-0.1-0.1-0.1c0,0,0,0-0.1-0.1v0
			c0-0.4-0.1-0.7-0.4-1.1l-0.2-0.4c-0.1-0.4-0.2-0.7-0.5-1h0c-0.1-0.4-0.3-0.6-0.5-0.8c-0.4-0.8-0.9-1.4-1.6-1.8v0
			c-0.1-0.1-0.2-0.2-0.3-0.4s-0.4-0.3-0.6-0.4c-0.2-0.3-0.5-0.5-0.9-0.6l-0.4-0.2v0c-0.5-0.5-1.5-0.9-2.9-1.2
			c-0.2,0-0.4-0.1-0.5-0.1c-0.2-0.1-0.4-0.4-0.4-0.8c0-0.4,0.1-0.7,0.2-0.9c0.1-0.1,0.1-0.1,0.2-0.1l1.2,0.1h0.3l0.8,0.2h0.1l-0.2,0
			c-0.2-0.1-0.4-0.2-0.7-0.2c-0.5-0.3-0.9-0.4-1.2-0.4c-0.4-0.1-0.6-0.2-0.6-0.2c0-0.1-0.1-0.1-0.1-0.1c0-0.1,0-0.1,0.1-0.2
			c0.1,0,0.2-0.1,0.4-0.1c0.4,0,0.8,0.1,1.2,0.1c1.5,0.3,2.9,0.9,4.1,1.8c1.9,1.3,3.4,3,4.6,5.1c0.1,0.2,0.2,0.4,0.3,0.6
			c0,0,0.1,0.1,0.1,0.1c0.1,0.1,0.1,0.3,0.1,0.4c0,0.2-0.1,0.4-0.2,0.5l-0.5,0.9c-0.2,0.4-0.4,0.8-0.6,1.2c-0.1,0.1-0.1,0.1-0.2,0.1
			C161.9,38.7,161.9,38.7,161.8,38.6z M160.9,39c-0.2-0.7-0.5-1.4-0.8-2c-1.4-2.6-3.5-4.3-6.1-5.1c-0.6-0.1-1.1-0.3-1.2-0.5
			c-0.1,0-0.1-0.1-0.1-0.2c0,0,0-0.1,0-0.1c0-0.1,0.1-0.1,0.1-0.2c0.1,0,0.2-0.1,0.3-0.1c0.3,0,0.9,0.2,1.8,0.5l1.1,0.4
			c0.1,0,0.2,0,0.2,0.1v0l0.4,0.2c0.2,0.3,0.5,0.5,0.9,0.6c0.1,0.2,0.3,0.3,0.5,0.4l0.2,0.2c0.1,0.1,0.2,0.2,0.2,0.2v0
			c0.5,0.7,1,1.3,1.6,1.8c0.1,0.4,0.3,0.6,0.5,0.8h0c0.1,0.4,0.3,0.7,0.5,1l0.2,0.4c0,0.4,0.1,0.7,0.4,1.1v0c0,0.1,0,0.1,0,0.2
			l0,0.5c0,0.2-0.1,0.4-0.2,0.6c-0.1,0.1-0.1,0.1-0.2,0.1C161.2,39.9,161,39.6,160.9,39z M159.2,25.7c-0.1,0-0.3,0-0.4,0.1
			c-0.9,0.1-1.7,0-2.5-0.4c-0.1-0.1-0.3-0.1-0.4-0.2c-0.1,0-0.1-0.1-0.2-0.1h0c-0.1,0-0.1-0.1-0.2-0.1l-0.1-0.1c0,0-0.1,0-0.1-0.1
			c-0.1-0.1-0.2-0.2-0.3-0.3c-0.1-0.2-0.2-0.4-0.4-0.4c0,0,0-0.1-0.1-0.1c0,0,0-0.1-0.1-0.1l-0.1-0.1c0,0,0,0-0.1-0.1c0,0,0,0,0-0.1
			c-0.1-0.3-0.2-0.5-0.4-0.7c0-0.1,0-0.3-0.1-0.4l-0.1,0.1c0,0.1,0.1,0.2,0.1,0.3c0,0.3,0.1,0.5,0.4,0.7c0,0,0,0.1,0,0.1l0.1,0
			c0,0,0,0,0,0.1c0,0,0,0.1,0.1,0.1c0,0.1,0.1,0.1,0.1,0.1l0,0c0.1,0.2,0.2,0.4,0.4,0.4c0.1,0.1,0.1,0.2,0.3,0.3c0,0,0,0.1,0.1,0.1
			l0.2,0.1c0,0,0,0.1,0.1,0.1c0.4,0.4,0.7,0.6,1.2,0.7c0.4,0.1,0.9,0.2,1.3,0.2C158.5,26,158.9,25.9,159.2,25.7c0.1,0,0.2,0,0.2,0h0
			C159.4,25.6,159.4,25.6,159.2,25.7L159.2,25.7L159.2,25.7L159.2,25.7z M159.4,22.4c0.3-0.5,0.4-0.9,0.4-1.4c0-0.3-0.1-0.6-0.2-1
			c-0.3-0.6-0.7-1.1-1.3-1.3c-0.2-0.1-0.4-0.1-0.6-0.1c-0.9,0-1.5,0.5-1.9,1.5c-0.1,0.3-0.1,0.6-0.1,0.9c0,0.5,0.1,0.9,0.4,1.3
			c0.4,0.6,1,0.9,1.7,1C158.5,23.2,159.1,22.9,159.4,22.4z M156.6,16.5c0.1,0,0.3,0,0.4-0.1c0.9-0.1,1.7,0,2.5,0.4
			c0.1,0.1,0.3,0.1,0.4,0.2c0.1,0,0.1,0.1,0.2,0.1h0c0.1,0,0.1,0.1,0.2,0.1l0.1,0.1c0,0,0.1,0,0.1,0.1c0.1,0.1,0.2,0.2,0.3,0.3
			c0.1,0.2,0.2,0.4,0.4,0.4c0,0,0,0.1,0.1,0.1c0,0,0,0.1,0.1,0.1l0.1,0.1c0,0,0,0,0.1,0.1c0,0,0,0,0,0.1c0.1,0.3,0.2,0.5,0.4,0.7
			c0,0.1,0,0.3,0.1,0.4l0.1-0.1c0-0.1-0.1-0.2-0.1-0.3c0-0.3-0.1-0.5-0.4-0.7c0,0,0-0.1,0-0.1l-0.1,0c0,0,0,0,0-0.1
			c0,0,0-0.1-0.1-0.1c0-0.1-0.1-0.1-0.1-0.1l0,0c-0.1-0.2-0.2-0.4-0.4-0.4c-0.1-0.1-0.1-0.2-0.3-0.3c0,0,0-0.1-0.1-0.1l-0.2-0.1
			c0,0,0-0.1-0.1-0.1c-0.4-0.4-0.7-0.6-1.2-0.7c-0.4-0.1-0.9-0.2-1.3-0.2c-0.4-0.1-0.8,0-1.2,0.2c0,0-0.1,0-0.1,0.1h0
			c0.1,0,0.1-0.1,0.2-0.1L156.6,16.5z"/>
		<path class="st1" d="M173.5,37l-2.1,0c-2-0.1-3.7-1-5-2.7c-1.1-1.5-1.7-3.2-1.7-5.2c0-1.6,0.4-3,1.2-4.4c1.3-2.1,3.1-3.3,5.4-3.4
			h0.3c1.3,0,2.5,0.4,3.7,1.2c0.3,0.2,0.6,0.5,0.9,0.9c0.4,0.5,0.9,0.7,1.5,0.7c0.6,0,1.1,0,1.3,0c0.3,0,0.5-0.2,0.5-0.6
			c0-0.1,0-1.2,0-3.3c0-0.4-0.1-0.7-0.2-0.8s-0.4-0.2-0.8-0.2h-13.2c-0.4-0.1-0.5-0.2-0.5-0.5c0-0.1,0-0.2,0.1-0.3
			c0.1-0.1,0.2-0.1,0.3-0.1c0.4,0,3.5,0,9.6,0c2.6,0,3.9,0,4-0.1l0.1-0.1c-0.1-0.1-0.3-0.1-0.6-0.1l-0.2,0c-1.7,0-5.9,0-12.5,0h-0.1
			c-0.6,0-0.8-0.3-0.8-0.8l0-0.4c0-0.4,0.2-0.6,0.6-0.6c0.3,0,2.3,0,6,0h6.8l0.2,0c0.2,0,0.4,0,0.6-0.1c0,0,0.1,0,0.1-0.1v0
			c0,0,0-0.1-0.1-0.1c0-0.1-0.5-0.1-1.3-0.1h-11.4l-1,0c-0.2-0.1-0.4-0.2-0.4-0.3l0.1-0.1c0-0.1,0.4-0.2,1.1-0.2h16.3
			c0.4,0,0.7,0.3,0.7,0.8v19.7c0,0.9-0.1,1.4-0.2,1.4c0,0-0.1,0-0.2,0c-0.1,0-0.1-0.2-0.1-0.5V20.8c0-0.8-0.1-1.1-0.1-1.2
			c0,0,0,0-0.1,0c0,0-0.1,0-0.1,0l-0.1,0.1c-0.1,0.1-0.1,0.6-0.1,1.5v14c0,0.4,0,0.8-0.1,1.2c0,0.4-0.3,0.6-0.8,0.6h-0.1
			c-0.5,0-0.7-0.3-0.7-0.8c0-0.3,0-0.7,0-1.1V20.2l0-0.4h-0.1l0,0.4c0,10.3,0,15.7,0,16.1c0,0.1-0.1,0.3-0.1,0.4
			c-0.1,0.1-0.2,0.1-0.3,0.1c-0.1,0-0.1,0-0.2-0.1c-0.1-0.2-0.1-0.7-0.1-1.5v-5.5c0-0.3,0-0.6-0.1-0.9s-0.2-0.5-0.4-0.5
			c-0.2,0-1.6,0-4,0c-0.3,0-0.5-0.2-0.6-0.6l-0.2-0.4c-0.6-1.1-1.2-1.6-1.7-1.6c-0.5,0-0.8,0-0.8,0c-0.8,0-1.5,0.3-2.1,0.8
			c-0.8,0.7-1.2,1.6-1.2,2.6c0,0.3,0,0.5,0.1,0.8c0.3,1.4,1,2.3,2.2,2.7c0.1,0,0.3,0.1,0.4,0.1c0.1,0,0.3,0,0.4,0.1
			c0.1,0,0.2,0,0.2,0c0.3,0,0.5-0.1,0.6-0.4c0.1-0.1,0.1-0.1,0.2-0.1l0.5,0.1c0,0,0.1,0,0.1,0c0,0,0,0,0.1-0.1c0,0,0-0.1,0-0.2
			c0-0.2,0-0.3,0.1-0.5c0.1-0.1,0.2-0.2,0.3-0.3c0.1-0.1,0.2-0.1,0.2-0.1l0.2,0c0.3,0.2,0.5,0.4,0.7,0.7l0.1,0.1
			c0.3,0.4,0.5,0.6,0.6,0.6h0.1c0.1-0.1,0.2-0.2,0.2-0.2c0-0.4-0.1-0.8-0.2-1.2l-0.1-0.6h0.1c0.4,0.4,0.7,0.8,0.9,1.3
			c0.2,0.4,0.3,0.7,0.3,1.1v3.3l0,0.1c0,0.3-0.2,0.5-0.5,0.6c-0.2,0-0.4,0.1-0.6,0.1L173.5,37L173.5,37L173.5,37z M167.7,26.5
			c-0.1,0.2-0.2,0.4-0.2,0.6c-0.1,0.1-0.1,0.2-0.1,0.4c0,0,0,0.1-0.1,0.1c0,0,0,0.1,0,0.1c0,0,0,0.1,0,0.1c0,0,0,0.1,0,0.1
			c-0.2,0.5-0.2,1-0.1,1.5c0.1,0.5,0.2,1,0.3,1.5c0.1,0.5,0.3,0.9,0.7,1.3c0,0,0.1,0.1,0.1,0.1c0,0,0,0.1,0.1,0.1c0,0,0,0.1,0.1,0.1
			l0.1,0.1c0.1,0.1,0.2,0.2,0.3,0.3c0.1,0.2,0.3,0.4,0.5,0.5c0,0,0,0,0.1,0c0,0,0,0,0.1,0.1c0,0,0.1,0.1,0.1,0.1
			c0.2,0.2,0.4,0.4,0.6,0.5c0.7,0.3,1.4,0.4,2.1,0.3l0.1-0.1l0-0.1c0,0,0,0,0,0c0,0,0,0,0,0s0,0,0,0h-0.1c-0.8,0.1-1.6-0.1-2.4-0.5
			c-0.1,0-0.2-0.1-0.3-0.1c0,0-0.1,0-0.1,0c0,0-0.1-0.1-0.1-0.1c0,0-0.1,0-0.1-0.1l-0.1-0.1c-0.1-0.2-0.3-0.4-0.5-0.5
			c-0.1-0.1-0.2-0.2-0.3-0.3c-0.1-0.1-0.1-0.1-0.1-0.2c-0.1-0.1-0.1-0.1-0.2-0.2c0-0.1-0.1-0.1-0.1-0.2c-0.1-0.2-0.1-0.3-0.2-0.5
			c-0.4-0.9-0.6-1.8-0.5-2.8v-0.8c0-0.1,0-0.1,0.1-0.2c0,0,0-0.1,0-0.1c0,0,0-0.1,0-0.1c0.1-0.1,0.1-0.3,0.2-0.4
			C167.6,26.9,167.6,26.7,167.7,26.5C167.7,26.5,167.7,26.5,167.7,26.5c0.1-0.1,0.1-0.1,0.1-0.2c0,0,0-0.1,0.1-0.1c0,0,0-0.1,0-0.1
			l0.1-0.1c0.2-0.1,0.4-0.4,0.4-0.6c0.4-0.2,0.7-0.5,0.9-0.9l0.2-0.1l0.5-0.2c0.4-0.2,0.6-0.3,0.9-0.3c0.2,0,0.5-0.1,0.9-0.1h0.9
			c-0.2-0.1-0.4-0.1-0.6-0.1c-0.8,0-1.6,0.2-2.4,0.6c-0.1,0.1-0.2,0.2-0.3,0.3c-0.4,0.1-0.7,0.4-0.9,0.9c-0.2,0.1-0.4,0.4-0.4,0.6
			c0,0,0,0.1-0.1,0.1c0,0,0,0,0,0.1c0,0,0,0,0,0l-0.1,0.1C167.7,26.4,167.7,26.5,167.7,26.5z M173,36.1c0.1,0,0.1,0,0.1,0
			c-0.2-0.1-0.4-0.1-0.6-0.1c-0.1,0-0.3,0.1-0.5,0.2h0.8C172.8,36.1,172.9,36.1,173,36.1z M179,27.1C179,27.1,179,27.1,179,27.1
			c0-0.1,0-0.1-0.1-0.1c-0.1,0-0.1,0-0.2,0c-1.9,0-2.9,0-2.9,0.1l0,0c0,0,0.1,0,0.1,0.1c0,0,0.1,0,0.2,0C178,27.1,179,27.1,179,27.1
			z M177.9,25h0.8c0.1,0,0.2,0,0.4-0.1c0,0,0.1-0.1,0.1-0.1v0c0,0,0-0.1,0-0.1s0,0,0,0c-0.4-0.1-0.8-0.1-1.2-0.1
			c-0.4,0-0.8,0-1.2,0.1c-0.1,0.1-0.1,0.1-0.1,0.1v0l0.1,0.1l1,0.1L177.9,25L177.9,25L177.9,25z"/>
		<path class="st1" d="M184.8,13.2c0-0.4,0-0.7,0-1.1c0,0,0-0.1,0-0.1s0-0.1,0.1-0.1c0,0,0.1,0,0.1,0c0,0,0.1,0,0.1,0
			c0,0,0.1,0,0.1,0.1c0,0,0.1,0.1,0.1,0.1c0,0,0,0,0,0c0.1,0.2,0.1,0.5,0.2,0.8c0,0.3,0,0.7,0,1v7.8c0,6.4,0,12.7,0,19.1
			c0,0.9-0.1,1.9-0.3,2.8c-0.1,0.1-0.1,0.3-0.1,0.5c0,0.1,0,0.2-0.1,0.3c-0.1-0.1-0.1-0.2-0.2-0.3c0-0.1,0-0.2,0-0.2v-0.1
			c0-0.2,0-0.4,0-0.6c0-0.9,0-1.8,0-2.6L184.8,13.2L184.8,13.2z M187.1,44.2c0-0.3-0.1-0.5-0.1-0.7c0,0,0,0,0-0.1h-0.1
			c0,0,0,0-0.1,0c0,0,0,0,0,0.1l-0.1,0.6c0,0.2,0,0.4-0.1,0.6c0,0,0,0,0,0.1c0,0-0.1,0-0.1,0h0c0,0,0,0,0,0c0,0,0,0,0,0h0
			c0-0.2-0.1-0.4-0.1-0.6c-0.1-0.6-0.3-1.3-0.4-1.9c-0.1-0.3-0.1-0.6-0.1-0.9V13.5c0-0.4,0-0.8,0-1.2c0-0.1,0-0.3,0.1-0.4
			c0-0.1,0-0.1,0.1-0.1c0,0,0.1-0.1,0.1-0.1c0,0,0.1,0,0.1,0c0,0,0.1,0.1,0.1,0.1c0.1,0.2,0.2,0.4,0.3,0.6l0.2,0.4
			c0,0.1,0.1,0.1,0.1,0.1c0,0,0,0,0.1,0.1c0.1-0.1,0.1-0.1,0.1-0.2c0-0.1,0-0.1,0.1-0.2c0-0.1,0-0.3,0-0.5c0.1,0,0.1-0.1,0.1,0
			c0,0,0,0,0,0.1c0,0,0,0.1,0,0.1c0,0,0,0.1,0,0.1c0.1,0.3,0.1,0.6,0.1,0.9c0,0.4,0,0.8,0,1.2v12c0,4.8,0,9.6,0,14.5
			c0,1.1,0,2.1-0.2,3.2c0,0,0,0.1,0,0.2c0,0,0,0.1-0.1,0.2C187.2,44.3,187.2,44.2,187.1,44.2z M187.8,14.6c0-0.9,0-1.8,0-2.7
			c0-0.1,0-0.3,0.1-0.5c0,0,0-0.1,0-0.1l0,0h0.1c0,0,0,0,0.1,0c0,0,0.1,0,0.1,0c0,0.1,0.1,0.1,0.1,0.2l0.1,0.2l0.1,0.9
			c0,0.4,0,0.7,0,1.1c0,9.6,0,19.3,0,28.9v1.1c0,0.1,0,0.3,0,0.4v0.1c0,0.1,0,0.1-0.1,0.1c0,0-0.1,0-0.1,0c0,0-0.1,0-0.1-0.1
			c0,0-0.1-0.1-0.1-0.1c-0.1-0.2-0.1-0.3-0.1-0.5c0-0.2,0-0.5,0-0.7c0-0.8-0.1-1.5-0.1-2.3L187.8,14.6L187.8,14.6z"/>
		<path class="st1" d="M191.9,15.6c-0.6,0-1.2-0.1-1.8-0.3c0,0-0.1,0-0.1-0.1l0-0.1c0-0.1,0.2-0.2,0.5-0.2h7.4l0.2,0
			c0.2,0,0.4,0.1,0.5,0.2l0.1,0.1c0,0.1,0,0.2-0.1,0.3c-0.1,0.1-0.4,0.1-0.8,0.1C197.8,15.6,191.9,15.6,191.9,15.6z M198.5,45
			c-2.6-1.4-4.6-3.4-6.1-6c-1.6-2.9-2.4-5.9-2.4-9.3c0-3,0.7-5.9,2.1-8.6l0.4-0.7c0.2-0.4,0.4-0.7,0.5-1l0-0.1c0,0,0,0,0-0.1
			c0,0-0.1-0.1-0.1-0.2h-0.1c-0.2,0-0.4-0.1-0.6-0.1c-0.8,0-1.4,0-1.6-0.1c-0.3,0-0.4-0.1-0.4-0.4c0-0.2,0.1-0.3,0.5-0.4
			c0.3-0.1,0.7-0.1,1.3-0.1h1.5c0.1,0,0.1,0,0.2,0c0-0.1,0-0.2,0-0.2s-0.1,0-0.1,0l-0.1,0l-1.7-0.1c-0.5,0-1,0-1.3-0.1
			c0,0-0.1,0-0.1,0s-0.1-0.1-0.1-0.2c0,0,0,0,0-0.1c0,0,0-0.1,0-0.1c0,0,0-0.1,0-0.1l0.3-0.1c0.4-0.2,0.7-0.4,1.1-0.4
			c0.2,0,0.3-0.1,0.4-0.1c-0.1-0.1-0.1-0.1-0.2-0.1l-0.5,0c-0.2,0-0.3-0.1-0.4-0.1c-0.1,0-0.1,0-0.2,0s-0.1-0.1-0.1-0.1l0.1-0.1
			c0.2,0,2.6,0,7.1,0c0.6,0,0.9,0,0.9,0.1c0.1,0.1,0.1,0.1,0.1,0.2s0,0.2,0,0.4l0,1l0,1c0,0.2-0.1,0.5-0.3,0.6
			c-0.2,0.2-0.4,0.4-0.7,0.6c-2,1.9-3.3,4.3-3.9,7.1c-0.2,0.9-0.2,1.8-0.2,2.7c0,2,0.4,4,1.3,5.9c1.4,3,3.6,5.1,6.6,6.1
			c1,0.4,2,0.5,3,0.5c0.5,0,1.1,0,1.6-0.1l1.1-0.2l1.2-0.2c0,0,0,0,0,0.1c0,0,0,0,0,0c0,0.2-0.1,0.4-0.5,0.6l-1.1,0.4l-0.1,0.1
			c0.2,0.1,0.4,0.1,0.6,0.1c0.2,0,0.7-0.1,1.5-0.2l0,0.1c0,0.1-0.1,0.1-0.1,0.2c-0.1,0.1-0.1,0.1-0.1,0.2c0,0.1,0,0.1,0.1,0.1
			c0.1,0,0.1,0.1,0.2,0.1c0.1,0,0.1,0,0.1,0.1c0,0,0,0.1,0,0.1s0,0.1,0,0.1c-0.8,0.5-1.7,0.9-2.6,1.2c-0.4,0.1-1,0.2-1.7,0.2l-0.3,0
			l-0.3,0c-1.6,0-3-0.3-4.4-0.9l-0.2-0.1c-0.2-0.1-0.5-0.2-0.8-0.2c-0.2-0.2-0.5-0.4-0.7-0.4l-0.4-0.2c-0.5-0.6-1.1-1.1-1.8-1.5
			l-0.2-0.3c-0.1-0.2-0.3-0.4-0.5-0.6c-1-1.1-1.9-2.4-2.5-3.8c-0.7-1.4-1.1-2.9-1.3-4.4c-0.2-1.5-0.3-2.5-0.3-2.8c0-0.2,0-0.4,0-0.6
			c0-0.2,0.1-0.5,0.1-1c0.1-1.6,0.5-3.1,1-4.6c0.2-0.4,0.3-0.9,0.4-1.4c0.3-0.3,0.5-0.6,0.5-1.1c0.5-0.4,0.9-1,1.1-1.7
			c-0.6,0.4-0.9,0.9-1.1,1.7c-0.3,0.3-0.5,0.6-0.5,1.1c-0.3,0.3-0.5,0.6-0.6,1c-0.8,2.3-1.2,4.5-1.2,6.5c0,0.9,0.1,1.8,0.2,2.7
			c0.5,3.3,1.8,6.2,3.9,8.6l0.3,0.3c0.2,0.2,0.4,0.4,0.7,0.5c0.4,0.7,1.1,1.2,1.8,1.5l0.4,0.2c0.2,0.3,0.4,0.4,0.7,0.4
			c0.1,0.2,0.3,0.4,0.5,0.4c0.3,0.2,0.6,0.3,0.9,0.4c1.5,0.5,3,0.8,4.5,0.8c0.3,0,0.6,0,0.9-0.1l0.2,0c0.2,0,0.4,0,0.7-0.1h1
			l1.6,0.1c0,0,0,0,0,0.1c-0.1,0.1-0.2,0.2-0.5,0.3c-1.3,0.4-2.7,0.7-4,0.7C202.5,46.5,200.4,46,198.5,45z M194.9,16.5L194.9,16.5
			l-1.5,0c-0.1,0-0.3,0-0.5,0.1c0.2,0,0.6,0.1,1,0.1h0.9C194.9,16.5,194.9,16.5,194.9,16.5z M203.7,43.2
			C203.7,43.2,203.7,43.2,203.7,43.2L203.7,43.2c0-0.1-0.1-0.1-0.1-0.1s-0.1,0-0.1,0c0,0-0.1,0-0.1,0l0.1,0.1
			C203.6,43.2,203.6,43.2,203.7,43.2z M205.8,43.1l-0.1,0c0,0,0,0,0,0c0,0,0,0,0,0.1L205.8,43.1L205.8,43.1L205.8,43.1z"/>
		<path class="st1" d="M212.3,37.8c-0.3,0-0.5-0.4-0.5-1c0-0.3,0-0.7,0-1.1v-8.1c0-0.2,0-0.4-0.1-0.6c-0.1,0.1-0.1,0.1-0.1,0.2
			c0,0.4,0,3.3,0,8.9c0,0.8-0.1,1.3-0.2,1.5c0,0,0,0,0,0s-0.1,0-0.2,0c-0.1,0-0.1,0-0.2-0.1c0,0,0-0.1,0-0.1
			c-0.1-0.1-0.1-0.2-0.1-0.4c0-0.5,0-1.8,0-4.1v-3.9c0-0.6-0.1-0.9-0.4-0.9l-0.1,0.1c-0.2,0.3-0.5,0.6-0.7,1
			c-3.2,2.9-4.9,4.4-5.1,4.6c-0.2,0.3-0.3,0.5-0.4,0.6c-0.1,0.1-0.2,0.2-0.4,0.2c-0.1,0-0.3,0-0.5,0h-1.7c-1,0-1.6,0-1.8-0.1h-0.1
			c-0.1-0.1-0.1-0.2-0.1-0.2v0c0-0.1,0.1-0.3,0.3-0.6c0.2-0.4,0.4-0.8,0.4-1.3c0-11,0-16.7,0-17.1c0-0.3,0.1-0.4,0.2-0.6l0.1,0
			c0.1,0,0.2,0,0.2,0.1c0.1,0.2,0.2,0.8,0.2,1.8v14.1l0.1,0c0.1,0,0.1,0,0.1-0.1v-0.1c0-0.4,0-2.9,0-7.6v-6.4c0-0.8,0-1.4,0.1-1.6
			c0.1-0.2,0.2-0.3,0.3-0.4c0.1,0,0.3,0,0.4,0l0.4,0c0.2,0,0.4,0.2,0.4,0.4c0,0.4,0.1,0.8,0.1,1.2v11.2c0,0.2,0.1,0.3,0.2,0.4
			c0.1-0.1,0.2-0.3,0.2-0.6V16.7c0-0.9,0.1-1.4,0.1-1.5s0.2-0.2,0.3-0.2c0.3,0,2.1-0.1,5.4-0.1l4.6,0c0.4,0,0.7,0.1,0.7,0.2
			c0,0.1,0,0.1-0.1,0.2c-0.1,0.1-0.6,0.1-1.3,0.1h-7.6l-0.7,0.1c-0.1,0-0.2,0-0.2,0s-0.1,0-0.1,0.1h0c0,0.1,0,0.1,0.1,0.1l0.9,0.1
			h8.2c0.2,0,0.4,0,0.7,0.1c0.2,0,0.4,0.2,0.4,0.4c0,0.2,0.1,0.4,0.1,0.7c0,0.4-0.2,0.5-0.5,0.6c-0.4,0-0.7,0.1-1.1,0.1h-7.4l-0.9,0
			c-0.1,0-0.2,0-0.3,0.1c-0.1,0-0.1,0.1-0.1,0.1c0,0,0,0,0,0.1c0,0,0,0,0.1,0c0,0,0.1,0,0.1,0c0.4,0,3.2,0,8.5,0
			c0.6,0,1.1,0,1.3,0.1c0,0,0,0,0.1,0.1c0,0,0.1,0.1,0.1,0.2v0.1c0,0.1-0.1,0.2-0.2,0.3c-0.2,0.1-0.6,0.1-1.4,0.1l-5,0
			c-2,0-3.2,0-3.7,0.1c-0.2,0-0.4,0.2-0.4,0.5c0,0.3-0.1,0.6-0.1,0.9v5.7c0,0.1,0,0.2,0,0.3c0,0.1,0.1,0.2,0.3,0.3
			c0.1,0,0.3-0.1,0.4-0.2c0.1-0.1,0.2-0.3,0.3-0.5l4.3-3.5c0.6-0.9,1-1.4,1.1-1.5c0.1,0,0.2,0,0.3,0c0.1,0,0.1,0.1,0.2,0.2l0.2,0.1
			c0.2-0.2,0.4-0.3,0.7-0.3c0.2,0,0.5-0.1,0.7-0.1l0.6,0c0.2,0,0.4,0.1,0.6,0.1c0.2,0,0.4,0,0.6-0.1h0.1c0.1,0,0.1,0.1,0.2,0.1
			c0.1,0.1,0.1,0.1,0.1,0.2c-0.1,0.6-0.2,1.1-0.2,1.7v13.1l0,1.1c-0.1,0.3-0.1,0.4-0.3,0.4c-0.1,0-0.1,0-0.2-0.1
			c-0.1-0.2-0.1-0.7-0.1-1.5V24.8c0-0.3,0-0.5-0.1-0.8v-0.3l-0.1-0.1l-0.1,0c-0.1,0-0.2,0.7-0.2,2.1v10.3c0,0.9-0.1,1.4-0.1,1.5
			c-0.1,0.1-0.2,0.2-0.3,0.2L212.3,37.8L212.3,37.8z M204.6,28.4l0.5-0.7l4.9-4.4c0.3-0.4,0.5-0.7,0.5-1l0-0.1l-0.1-0.1c0,0,0,0,0,0
			l-0.2,0.2c-0.1,0.2-0.2,0.3-0.3,0.4c-2.4,1.9-3.9,3.3-4.7,4.2l-0.4,0.5c-0.1,0.2-0.2,0.4-0.4,0.6l-0.1,0.2c0,0.1,0,0.1,0,0.1
			c0,0,0,0,0.1,0L204.6,28.4z M210.5,26.5l-0.1-0.2l-4.3,4.2l-1.2,1.3c-0.2,0.2-0.4,0.4-0.4,0.5s-0.1,0.1-0.1,0.1L210.5,26.5z"/>
		<path class="st1" d="M229.3,26c0,0.1,0.1,0.2,0.1,0.2c0,0.9,0,1.8,0,2.7v0.7c0,0.4-0.2,0.6-0.5,0.6c-0.2,0.1-0.4,0.1-0.6,0.1
			c-1.4,0.1-2.8-0.4-4-1.2c-0.1,0-0.1-0.1-0.2-0.1c-0.2-0.2-0.4-0.3-0.6-0.4c-0.1-0.1-0.3-0.1-0.4,0c-0.1,0.1-0.4,0.2-0.6,0.4
			l-0.1,0.1c-1.2,0.9-2.6,1.4-4.1,1.4c-0.3,0-0.5,0-0.8-0.1c0,0-0.1,0-0.1,0c-0.3-0.1-0.4-0.3-0.4-0.6l-0.1-0.6V27l0.1-0.6
			c0-0.1,0.1-0.2,0.1-0.2c0.1-0.1,0.1-0.1,0.2-0.1l0.3,0.1l0.4,0.1c1.2,0.2,2.2-0.3,3-1.5c0.7-1.2,0.8-2.4,0.3-3.7
			c-0.4-0.9-1-1.5-1.7-1.8c-0.8-0.3-1.5-0.3-2.3,0c-0.1,0.1-0.3,0.1-0.4,0.2c-0.1,0.1-0.2,0.1-0.3,0.1c-0.1,0-0.1,0-0.2,0
			c-0.1,0-0.1-0.1-0.1-0.2c0,0,0-0.1,0-0.1v-3.6c0-0.1,0-0.3,0.1-0.4c0.1-0.2,0.2-0.3,0.3-0.4c0.2-0.1,0.4-0.1,0.5-0.1
			c0.9,0,1.8,0,2.7,0c0.5,0,0.9,0.1,1.4,0.3c0.4,0.2,0.8,0.5,1.2,0.8c0.3,0.2,0.6,0.4,0.7,0.4s0.4-0.1,0.7-0.4l0.3-0.2l0.1-0.1
			c0.7-0.6,1.6-0.8,2.5-0.8c0.5,0,1,0,1.5,0c0.2,0,0.5,0,0.7,0h0c0.4,0,0.9,0,1.3,0.1c0.1,0,0.2,0,0.3,0c0.1-0.1,0.1-0.2,0.1-0.3
			c0-0.2,0-0.4,0-0.6c0-0.1,0-0.2,0-0.3v-0.1c0-0.2,0-0.4,0-0.6c0-0.1,0.1-0.1,0.1-0.2c0.1-0.1,0.1-0.1,0.2-0.1c0.1,0,0.1,0,0.2,0.1
			c0.1,0,0.1,0.1,0.1,0.2c0,0,0,0,0,0c0,0.1,0.1,0.2,0.1,0.4c0,0.3,0,0.6,0,0.8v21.3c0,0.3,0,0.6-0.1,1c0,0.1,0,0.1-0.1,0.2
			c0,0.1-0.1,0.1-0.1,0.1c-0.1,0.1-0.2,0.1-0.3,0.1c-0.1,0-0.2-0.1-0.2-0.2c-0.1-0.1-0.1-0.2-0.1-0.4c0-0.3,0-0.7,0-1l0-13.4v-1.1
			c0-0.3-0.1-0.5-0.3-0.8c-0.9-1.1-2-1.5-3.3-1.1c-1.6,0.7-2.3,2-2.2,3.9c0.1,1,0.5,1.8,1.1,2.4c0.6,0.6,1.4,0.9,2.3,0.8l0.4-0.1
			c0.1,0,0.2-0.1,0.3-0.1c0.1,0,0.2,0,0.3,0h0.1L229.3,26z M222.3,25.3c0.1-0.2,0.2-0.4,0.2-0.6c0.1-0.1,0.1-0.2,0.1-0.4
			c0,0,0-0.1,0.1-0.1c0,0,0-0.1,0-0.1c0,0,0-0.1,0-0.1c0,0,0-0.1,0-0.1c0.2-0.5,0.2-1,0.1-1.5c-0.1-0.5-0.2-1-0.3-1.5
			c-0.1-0.5-0.3-0.9-0.7-1.3c0,0-0.1-0.1-0.1-0.1c0,0,0-0.1-0.1-0.1c0,0,0-0.1-0.1-0.1l-0.1-0.1c-0.1-0.1-0.2-0.2-0.3-0.3
			c-0.1-0.2-0.3-0.4-0.5-0.5c0,0,0,0-0.1,0c0,0,0,0-0.1-0.1c0,0-0.1-0.1-0.1-0.1c-0.2-0.2-0.4-0.4-0.6-0.5c-0.7-0.3-1.4-0.4-2.1-0.3
			l-0.1,0.1l0,0.1c0,0,0,0,0,0s0,0,0,0s0,0,0,0h0.1c0.8-0.1,1.6,0.1,2.4,0.5c0.1,0,0.2,0.1,0.3,0.1c0,0,0.1,0,0.1,0
			c0,0,0.1,0.1,0.1,0.1s0.1,0,0.1,0.1l0.1,0.1c0.1,0.2,0.3,0.4,0.5,0.5c0.1,0.1,0.2,0.2,0.3,0.3c0.1,0.1,0.1,0.1,0.1,0.2
			c0.1,0.1,0.1,0.1,0.2,0.2c0,0.1,0.1,0.1,0.1,0.2c0.1,0.2,0.1,0.3,0.2,0.5c0.4,0.9,0.6,1.8,0.5,2.8v0.8c0,0.1,0,0.1-0.1,0.2
			c0,0,0,0.1,0,0.1c0,0,0,0.1,0,0.1c-0.1,0.1-0.1,0.3-0.2,0.4C222.4,24.9,222.3,25.1,222.3,25.3C222.3,25.3,222.3,25.3,222.3,25.3
			c-0.1,0.1-0.1,0.1-0.1,0.2c0,0,0,0.1-0.1,0.1c0,0,0,0.1,0,0.1l-0.1,0.1c-0.2,0.1-0.4,0.4-0.4,0.6c-0.4,0.2-0.7,0.5-0.9,0.9
			l-0.2,0.1l-0.5,0.2c-0.4,0.2-0.6,0.3-0.9,0.3s-0.5,0.1-0.9,0.1h-0.9c0.2,0.1,0.4,0.1,0.6,0.1c0.8,0,1.6-0.2,2.4-0.6
			c0.1-0.1,0.2-0.2,0.3-0.3c0.4-0.1,0.7-0.4,0.9-0.9c0.2-0.1,0.4-0.4,0.4-0.6c0,0,0-0.1,0.1-0.1c0,0,0,0,0-0.1c0,0,0,0,0,0l0.1-0.1
			C222.2,25.4,222.3,25.4,222.3,25.3z M230.3,16.8c-0.1,0-0.1-0.1-0.2-0.1c-0.1-0.2-0.4-0.4-0.6-0.4c0,0-0.1,0-0.1-0.1h-0.1
			c0,0,0,0-0.1,0c0,0-0.1,0-0.1-0.1c-0.1,0-0.1,0-0.1-0.1h0c-0.1-0.1-0.3-0.2-0.5-0.1c-0.1-0.1-0.2-0.1-0.4-0.1c0,0-0.1,0-0.1,0
			h-0.2c0,0-0.1,0-0.1,0c-0.4-0.1-0.9-0.1-1.3,0.1c-0.4,0.1-0.8,0.3-1.2,0.5c-0.4,0.2-0.7,0.5-1,1c0,0-0.1,0-0.1,0.1
			c0,0,0,0.1-0.1,0.1c0,0,0,0-0.1,0.1l-0.1,0.1c-0.1,0.1-0.2,0.2-0.2,0.4c-0.2,0.2-0.3,0.4-0.3,0.7c0,0,0,0,0,0.1c0,0,0,0.1-0.1,0.1
			l-0.1,0.2c-0.1,0.2-0.2,0.5-0.3,0.8c-0.1,0.8-0.1,1.6,0.1,2.5c0,0,0,0.1,0.1,0.1c0,0,0,0,0,0s0,0,0.1,0v0c0,0,0,0,0-0.1v-0.1
			c-0.2-0.9-0.2-1.8,0-2.7c0-0.1,0-0.2,0-0.3c0-0.1,0-0.1,0-0.1l0.1-0.2c0,0,0,0,0-0.1c0,0,0-0.1,0-0.1c0.2-0.2,0.3-0.4,0.4-0.7
			c0.1-0.1,0.2-0.2,0.2-0.4c0.1-0.1,0.1-0.1,0.2-0.2l0.2-0.2c0.1-0.1,0.1-0.1,0.2-0.1c0.1-0.1,0.2-0.2,0.4-0.3
			c0.7-0.6,1.5-1,2.4-1.1c0.2,0,0.3,0,0.5-0.1c0.1,0,0.1,0,0.2,0h0c0.1,0,0.1,0,0.2,0h0.1c0,0,0.1,0,0.1,0c0.1,0.1,0.2,0.1,0.4,0.1
			c0.2,0.1,0.3,0.2,0.5,0.1c0,0,0.1,0,0.1,0c0,0,0,0,0.1,0l0.1,0.1c0,0,0,0,0.1,0c0,0,0,0,0.1,0c0.2,0.2,0.4,0.3,0.6,0.4
			c0.1,0.1,0.1,0.2,0.2,0.3L230.3,16.8L230.3,16.8L230.3,16.8z M228.6,28.7c-0.1,0-0.3,0-0.4,0.1c-0.9,0.1-1.7,0-2.5-0.4
			c-0.1-0.1-0.3-0.1-0.4-0.2c-0.1,0-0.1-0.1-0.2-0.1h0c-0.1,0-0.1-0.1-0.2-0.1l-0.1-0.1c0,0-0.1,0-0.1-0.1c-0.1-0.1-0.2-0.2-0.3-0.3
			c-0.1-0.2-0.2-0.4-0.4-0.4c0,0,0-0.1-0.1-0.1c0,0,0-0.1-0.1-0.1l-0.1-0.1c0,0,0,0-0.1-0.1c0,0,0,0,0-0.1c-0.1-0.3-0.2-0.5-0.4-0.7
			c0-0.1,0-0.3-0.1-0.4l-0.1,0.1c0,0.1,0.1,0.2,0.1,0.3c0,0.3,0.1,0.5,0.4,0.7c0,0,0,0.1,0,0.1l0.1,0c0,0,0,0,0,0.1
			c0,0,0,0.1,0.1,0.1c0,0.1,0.1,0.1,0.1,0.1l0,0c0.1,0.2,0.2,0.4,0.4,0.4c0.1,0.1,0.1,0.2,0.3,0.3c0,0,0,0.1,0.1,0.1l0.2,0.1
			c0,0,0,0.1,0.1,0.1c0.4,0.4,0.7,0.6,1.2,0.7c0.4,0.1,0.9,0.2,1.3,0.2C227.9,29,228.3,28.9,228.6,28.7c0.1,0,0.2,0,0.2,0h0
			C228.8,28.7,228.7,28.7,228.6,28.7L228.6,28.7L228.6,28.7L228.6,28.7z M233.2,35.1c0,0.4,0,0.8-0.1,1.2c0,0.3-0.2,0.5-0.5,0.5
			c-0.1,0-0.2,0-0.3,0c-0.6,0.1-0.8-0.2-0.8-0.8c0-0.3,0-0.5,0-0.8v-21c0-0.4,0-0.7,0.1-1.1c0-0.4,0.3-0.7,0.7-0.6
			c0.2,0,0.4,0,0.6,0.1c0.2,0,0.3,0.2,0.3,0.4c0,0.4,0.1,0.8,0.1,1.2L233.2,35.1L233.2,35.1z M234.2,35.2c0,0.4,0,0.7,0,1.1
			c0,0.1,0,0.2-0.1,0.3c0,0,0,0-0.1,0.1c0,0-0.1,0-0.1,0.1c0,0-0.1,0-0.1,0c0,0-0.1,0-0.1-0.1c-0.1-0.1-0.1-0.2-0.1-0.3
			c0-0.4-0.1-0.7-0.1-1.1v-5.7c0-0.4,0-0.9,0-1.3c0-0.2,0-0.4,0-0.6c0-0.1,0-0.2,0-0.3c0-0.2,0-0.4,0-0.6v-0.5c0-0.5,0-1,0-1.5
			c0.1-1.4,0.1-2.7,0-4c0-0.2,0-0.4,0-0.6V20c0.1-2.2,0.1-4.4,0-6.6c0-0.2,0-0.4,0-0.5c0-0.1,0.1-0.2,0.2-0.3c0.1,0,0.1,0,0.2,0.1
			c0.1,0.1,0.1,0.1,0.1,0.2c0,0.1,0,0.3,0,0.4c0,0.3,0,0.6,0,1L234.2,35.2L234.2,35.2z"/>
	</g>
	<g>
		<g>
			<path d="M34,12.2c-0.3,0-0.6-0.1-0.9-0.2s-0.5-0.3-0.7-0.5c-0.2-0.2-0.4-0.4-0.5-0.7c-0.1-0.3-0.2-0.5-0.2-0.8l0-3.5
				c0-0.4,0.1-0.7,0.3-1l0.7-1.1l0-0.2c0-0.1,0-0.3-0.1-0.4c-0.1-0.1-0.2-0.2-0.3-0.4l-0.8-0.8c-0.4-0.5-0.7-1-0.7-1.5
				c0-0.2,0-0.5,0.2-0.8h1.3c-0.2,0.2-0.4,0.5-0.4,0.8c0,0.3,0.1,0.6,0.3,0.8l0.8,0.8c0.5,0.5,0.7,1,0.7,1.6v0.2h0.8v1.1H34
				c-0.2,0-0.3,0.1-0.4,0.1c-0.1,0.1-0.2,0.2-0.3,0.3S33,6.1,32.9,6.3c0,0.1-0.1,0.2-0.1,0.4V10c0,0.1,0,0.3,0.1,0.4
				c0,0.1,0.1,0.2,0.2,0.4c0.1,0.1,0.2,0.2,0.4,0.3c0.1,0.1,0.3,0.1,0.5,0.1c0.3,0,0.6-0.1,0.9-0.3V12c-0.1,0-0.3,0.1-0.4,0.1
				C34.3,12.1,34.2,12.2,34,12.2z"/>
			<path d="M39,11V7.9l-3,1.8l-0.6-0.9V5.5h-0.9V4.4h6.5v1.1h-4.5v2.6l3-1.8l0.6,0.9V11c0,0.3,0.1,0.6,0.3,0.8
				c0.2,0.2,0.5,0.3,0.8,0.4h-1.9C39.2,11.8,39,11.5,39,11z"/>
			<path d="M42.8,12.2h-1.1V5.5h-0.9V4.4h0.9V4.2c0-0.3,0.1-0.6,0.2-0.8c0.1-0.3,0.3-0.5,0.5-0.7c0.2-0.2,0.5-0.4,0.7-0.5
				C43.4,2.1,43.7,2,44,2h2l1.7,1.6h-1.6l-0.5-0.5H44c-0.3,0-0.6,0.1-0.9,0.3c-0.2,0.2-0.3,0.5-0.3,0.8v0.2h0.9v1.1h-0.9
				C42.8,5.5,42.8,12.2,42.8,12.2z"/>
			<path d="M50.3,12.2h-1.1V9.6l-1.9-1.8c-0.3-0.2-0.5-0.3-0.8-0.3l-0.3,0l-0.1,0c-0.5,0.2-0.8,0.6-0.8,1.1c0,0.2,0,0.3,0.1,0.4
				c0.1,0.1,0.2,0.3,0.3,0.4c0.1,0.1,0.2,0.2,0.4,0.2c0.1,0.1,0.3,0.1,0.5,0.1V8.6h1.1v2.2h-1.1c-0.3,0-0.6-0.1-0.9-0.2
				c-0.3-0.1-0.5-0.3-0.7-0.5c-0.2-0.2-0.4-0.4-0.5-0.7s-0.2-0.6-0.2-0.9c0-0.4,0.1-0.8,0.3-1.1c0.2-0.3,0.5-0.6,0.9-0.8l0.4-0.2
				l0.2-0.1l0.5,0c0.3,0,0.6,0.1,0.9,0.2c0.3,0.1,0.5,0.3,0.8,0.5l1.1,1V5.5h-5.7V4.4h7.7v1.1h-0.9L50.3,12.2L50.3,12.2L50.3,12.2z"
				/>
			<path d="M55.7,12.2h-1.6c-0.3,0-0.6-0.1-0.9-0.2c-0.3-0.1-0.5-0.3-0.7-0.5c-0.2-0.2-0.4-0.4-0.5-0.7c-0.1-0.3-0.2-0.6-0.2-0.9
				V6.6h5.2V5.5h-6V4.4h10.6v1.1h-3.5v1.1h0.5c0.3,0,0.6,0.1,0.9,0.2c0.3,0.1,0.5,0.3,0.7,0.5c0.2,0.2,0.4,0.4,0.5,0.7
				c0.1,0.3,0.2,0.6,0.2,0.8v1.1h-2.3V8.8h1.2c0-0.3-0.1-0.6-0.4-0.8c-0.2-0.2-0.5-0.3-0.8-0.3h-0.5V10c0,0.3-0.1,0.6-0.2,0.9
				s-0.3,0.5-0.5,0.7c-0.2,0.2-0.5,0.4-0.7,0.5C56.3,12.1,56,12.2,55.7,12.2z M55.7,11.1c0.2,0,0.3,0,0.5-0.1
				c0.1-0.1,0.3-0.1,0.4-0.2c0.1-0.1,0.2-0.2,0.3-0.4c0.1-0.1,0.1-0.3,0.1-0.4V7.7h-4V10c0,0.2,0,0.3,0.1,0.4s0.2,0.3,0.3,0.4
				c0.1,0.1,0.2,0.2,0.4,0.2c0.1,0.1,0.3,0.1,0.5,0.1C54.1,11.1,55.7,11.1,55.7,11.1z"/>
		</g>
	</g>
	<g>
		<g>
			<path id="XMLID_00000147189131904931475140000008773405247336301753_" class="st1" d="M23,25.7c0-0.1,0-0.2,0-0.2
				c0.1-0.1,0.2-0.1,0.3-0.1c0-0.1,0-0.2-0.1-0.2c-0.1-0.1-0.2-0.2-0.4-0.1v-0.3c0.2,0,0.3-0.1,0.4-0.5c-0.1-0.1-0.2-0.2-0.2-0.4
				c0,0,0,0,0-0.1c0-0.1,0-0.2,0-0.2c0.1-0.1,0.1-0.2,0.1-0.4c0-0.1,0-0.2-0.2-0.2c-0.1,0-0.2,0-0.3,0c-0.1,0-0.2,0-0.3-0.2
				c0-0.2,0-0.4,0.1-0.5c0.1-0.1,0.1-0.3,0-0.4c-0.1-0.1-0.2-0.2-0.1-0.4c0-0.1,0-0.2,0-0.2c-0.2-0.1-0.3,0-0.4,0.1
				c-0.1,0-0.2,0-0.4-0.1c-0.1,0-0.2,0-0.3-0.1c-0.1-0.1-0.2-0.1-0.4-0.1c0-0.2,0-0.3,0-0.5c0-0.1-0.1-0.3-0.2-0.4
				c0-0.1,0.1-0.3,0.2-0.5c0.2-0.3,0.1-0.6,0-0.9c-0.2,0.1-0.3,0-0.4-0.1c0,0.1-0.1,0.2-0.1,0.2c-0.1,0.1-0.5,0-0.6-0.1
				c0-0.1-0.1-0.1-0.2-0.1c-0.3-0.1-0.5-0.1-0.8-0.2c-0.2,0.2-0.2,0.2-0.5,0.1c-0.1-0.1-0.1-0.1-0.2,0c0,0.1,0,0.1,0,0.2
				c-0.1-0.1-0.1-0.1-0.2-0.2c-0.1-0.1-0.2-0.1-0.4-0.1c-0.2,0-0.4,0.1-0.5,0.1c-0.1,0-0.2,0-0.3,0c-0.1-0.1-0.2-0.2-0.4-0.2
				c0,0-0.1,0-0.1,0c-0.2-0.2-0.4-0.2-0.5,0c0,0,0,0,0,0c-0.1-0.2-0.2-0.3-0.4-0.2c-0.1,0-0.2,0-0.4-0.1c-0.2-0.2-0.3-0.3-0.5-0.1
				c-0.1-0.2-0.2-0.3-0.4-0.3c0,0-0.1-0.1-0.1-0.1c0,0-0.1-0.1-0.1-0.1c-0.1,0-0.2,0-0.2-0.1c-0.2-0.2-0.4-0.1-0.5,0.1
				c-0.1,0.1-0.1,0.2-0.3,0.1c-0.1-0.2-0.1-0.3-0.2-0.5c-0.1-0.2-0.1-0.3-0.4-0.2c0,0.2,0,0.4,0.1,0.5c-0.1,0.2-0.2,0.4-0.3,0.6
				c-0.1,0.3-0.4,0.6-0.1,0.9c0,0,0,0,0,0.1c-0.1,0-0.1,0.1-0.2,0.1c0,0,0,0.1,0,0.1c-0.1,0.3-0.1,0.5,0.1,0.8
				c0.1,0.1,0.1,0.3,0,0.4c-0.1,0.1-0.1,0.3-0.1,0.4c0,0.2,0,0.4,0.1,0.6c0,0.1,0.2,0.1,0.3,0.2c0,0.1,0,0.1,0,0.2
				c0.1,0,0.2,0.1,0.2,0.1c0.1,0.2,0.4,0.4,0.4,0.7c0,0.1,0.1,0.2,0,0.3c-0.1,0.2-0.1,0.4-0.1,0.6c0.1,0,0.2,0,0.3,0v0.3
				c-0.1,0-0.2,0-0.3-0.1c-0.1,0.2-0.2,0.4-0.2,0.7c0,0.1,0,0.2,0,0.3c0,0.2,0,0.4,0.1,0.7c0.1,0.3,0,0.6,0,0.8c0,0,0,0.1-0.1,0.1
				c-0.1,0.1-0.1,0.3-0.1,0.5c0.1-0.1,0.2-0.1,0.2-0.1c-0.1,0.1,0,0.3,0,0.4c0,0,0.1,0.1,0,0.1c0,0.2,0.1,0.4,0.2,0.6
				c0.1,0.2,0.1,0.3,0.1,0.5c-0.1,0-0.1,0-0.2,0c0.1,0.4-0.2,0.6-0.4,0.9c0,0,0,0-0.1,0c-0.1,0-0.1,0-0.2,0.1
				c-0.1,0-0.1,0.1-0.2,0.2c-0.2,0.2-0.3,0.5-0.2,0.8c0,0.1,0,0.2,0.1,0.3c0.1,0.1,0.1,0.2,0.1,0.4c0,0,0,0,0,0.1
				C12,31,12,31,12,30.9c-0.3,0-0.3,0.2-0.4,0.4c0-0.1-0.1-0.2-0.1-0.2c0,0-0.1-0.1-0.1-0.1c-0.1,0-0.2,0.1-0.3,0.1
				c-0.1,0.2-0.3,0.1-0.4,0.3c0,0-0.1,0-0.1,0c-0.1,0-0.1-0.1-0.2-0.2c-0.1-0.1-0.2-0.2-0.3-0.2c-0.1-0.2-0.4-0.4-0.6-0.4
				c-0.1,0-0.2,0-0.2,0.2c-0.1,0.2-0.1,0.5-0.2,0.7c-0.1,0.1-0.1,0.3-0.1,0.4c0,0.1,0,0.2,0,0.2c0.1,0.1,0.2,0.2,0.2,0.3
				c0,0,0.1,0,0.1,0c0.1,0,0.1-0.1,0.2-0.1c0.3,0.1,0.4,0.4,0.6,0.7c0.1,0.2,0.2,0.3,0.4,0.3c-0.1,0.1-0.1,0.2-0.1,0.2
				c0.1,0.1,0.1,0.3,0.2,0.4c0.1,0.2,0.3,0.3,0.5,0.3c0.2,0,0.3,0.1,0.2,0.3c0,0.1-0.1,0.1-0.1,0.2c-0.1,0.2-0.1,0.4,0.1,0.5
				c0.1,0.1,0.1,0.2,0.1,0.3c-0.1,0-0.2,0-0.3-0.1c0,0,0,0.1,0,0.1c0.1,0.1,0.2,0.2,0.2,0.3c0,0,0.1,0.1,0.1,0.1c0,0,0.1,0,0.2,0
				c0,0.1,0,0.1-0.1,0.2c-0.1,0.2-0.1,0.2,0.1,0.3c0,0,0.1,0.1,0.1,0.2c0,0.1,0,0.2,0.1,0.3c0,0,0,0,0.1,0l0.1-0.2
				c0.1-0.1,0.1-0.1,0.2,0c0,0,0.1,0.1,0.1,0.1c0.1,0.1,0.2,0.2,0.1,0.5c-0.1,0-0.1-0.1-0.2-0.1c-0.1,0.1-0.2,0.3-0.3,0.4
				c0.1,0.1,0.2,0.3,0.2,0.4c0.2,0.4,0.2,0.4,0.5,0.4c0,0.1,0,0.2-0.1,0.3c0.1,0,0.2,0,0.3-0.1c0,0.1,0.1,0.2,0.1,0.2
				c0,0.1,0.1,0.1,0.1,0.2c0,0.1,0,0.2,0,0.3c0.1,0.2,0.4,0.4,0.7,0.3c0.3-0.1,0.4-0.4,0.6-0.6c0.1-0.1,0.1-0.3,0.1-0.5
				c0,0,0,0,0-0.1c0,0,0,0,0-0.1c0,0,0.1,0,0.1,0s0.1,0,0.1,0l0,0c0.1,0,0.1,0,0.1,0c0,0,0-0.1,0.1-0.1c0-0.1,0-0.2,0.1-0.3
				c0-0.1,0-0.1,0-0.2c0.1,0,0.1,0,0.2,0.1c0.1,0,0.1,0.1,0.1,0.1c0.2-0.3,0.3-0.3,0.4,0c0,0.1,0.1,0.2,0.1,0.3c0,0,0,0.1,0,0.1
				c0,0.2,0.1,0.3,0.3,0.3c0.1,0,0.3-0.1,0.4-0.2c-0.1,0-0.1,0-0.2-0.1c0-0.1,0-0.1,0-0.2c0-0.1,0.1-0.2,0.2-0.3c0,0,0.2,0,0.2,0
				c0,0.1,0.1,0.1,0.1,0.2c0.1,0.1,0.2,0.1,0.3,0.2c0,0.1,0.1,0.1,0.2,0c0-0.1-0.1-0.2,0-0.4c0,0,0.1,0.1,0.1,0c0,0,0.1,0,0.2,0
				c0,0,0.1,0,0.1,0c0.2,0,0.3,0,0.3-0.2c0,0,0,0,0-0.1c0-0.1,0.1-0.1,0.2-0.1c0,0,0.1,0,0.2,0.1c0,0,0,0,0.1,0c0,0,0,0,0,0
				c0-0.2,0-0.3,0-0.5c0-0.2-0.1-0.5,0-0.7c-0.3-0.1-0.4-0.5-0.7-0.4c0,0-0.1,0-0.2-0.1c-0.1,0-0.3-0.1-0.4-0.1c0,0,0,0,0,0
				c-0.1-0.1-0.1-0.2-0.2-0.3c-0.1-0.2-0.2,0-0.4-0.1c0-0.1,0-0.2-0.1-0.3c-0.2-0.1-0.4-0.3-0.5-0.4c0,0,0,0-0.1-0.1
				c-0.1-0.1-0.1-0.3,0.1-0.3c0.1,0,0.2,0,0.4,0v0.2c0.4,0.1,0.4,0.1,0.8,0c0,0.1,0.1,0.1,0.1,0.2c0.3,0.1,0.5,0.2,0.8,0.2
				c0.2-0.4,0.3-0.7,0.2-1.1c0-0.1-0.1-0.2-0.1-0.2c-0.2,0-0.4-0.1-0.5-0.1c-0.2,0-0.3-0.1-0.2-0.3c0-0.1,0-0.2,0.1-0.3
				c0.1,0,0.3,0,0.3,0.1c0.1,0.1,0.2,0.2,0.4,0.2c0.1-0.2,0.2-0.3,0.3-0.5c0,0,0,0,0.1-0.1c0,0.1,0.1,0.1,0.2,0.2
				c0.1-0.1,0.2-0.1,0.3-0.1c-0.1,0.2-0.1,0.4-0.2,0.6c0,0.2-0.2,0.3-0.2,0.5c0.2,0,0.3-0.1,0.4-0.2c0.1-0.2,0.3-0.4,0.5-0.5
				c0-0.1,0-0.2,0-0.3c0,0,0-0.1,0-0.1c-0.1-0.1-0.1-0.2,0-0.3c0.2-0.1,0.2-0.1,0-0.4c-0.1-0.1-0.1-0.3,0-0.5c0.1-0.2,0.2-0.3,0-0.5
				c0,0,0-0.1,0-0.1c-0.1-0.3,0-0.5,0.4-0.5c0.1,0,0.3,0,0.4,0c0.1,0,0.2,0,0.4,0c0,0,0.1,0,0.2,0c0.1-0.1,0.2-0.2,0.2-0.3
				c0-0.1,0-0.2,0-0.3c0-0.2,0-0.2,0.1-0.2c0.1,0,0.2-0.1,0.2-0.2c0-0.2,0-0.4,0.2-0.6c0.2-0.2,0.2-0.4,0.1-0.6
				c0-0.1-0.1-0.2-0.1-0.4c0-0.1-0.1-0.2-0.1-0.4c0.2,0.2,0.3,0.1,0.4,0c0.1-0.1,0.2-0.2,0.4-0.1c0-0.2,0-0.3,0.2-0.3
				c0.1,0,0.2-0.1,0.3-0.2c0,0,0-0.1,0-0.1c0-0.1,0-0.1-0.1-0.2c0.2,0,0.3-0.1,0.3-0.3c0-0.1,0.1-0.2,0.2-0.2c0-0.1,0.1-0.1,0.2-0.2
				C23.3,25.7,23.2,25.6,23,25.7z M12.2,18.5c-0.1-0.1-0.1-0.1-0.1-0.1l0.1-0.1c0,0,0,0,0,0.1C12.2,18.5,12.2,18.5,12.2,18.5z
				 M10.1,32.5c0-0.1,0-0.1-0.1-0.2c0,0,0.1,0,0.1,0C10.2,32.4,10.2,32.4,10.1,32.5z M12.2,30C12.2,30,12.2,30,12.2,30
				C12.2,29.9,12.2,29.9,12.2,30C12.2,29.9,12.2,29.9,12.2,30C12.2,30,12.2,30,12.2,30z"/>
			<path id="XMLID_00000075852375730405651560000005900179979852940723_" class="st1" d="M33.1,53.8c-0.1-0.1-0.2-0.2-0.1-0.4
				c0,0,0-0.1,0-0.1c-0.1-0.3,0-0.7-0.4-0.9c0.1-0.1,0.2-0.2,0.2-0.4c0-0.1,0-0.2-0.2-0.3c-0.1-0.1-0.1-0.2,0-0.3
				c0.1-0.1,0.1-0.2,0.1-0.3c0-0.3,0-0.7,0-1.1c0-0.1,0-0.1-0.1-0.2c0-0.1-0.1-0.1-0.1-0.1c0,0,0.1-0.1,0.2-0.1c0,0,0,0,0.1-0.1
				c0-0.1,0-0.2-0.1-0.3c-0.1-0.2-0.1-0.6,0-0.9c0,0,0-0.1,0-0.2c0-0.1,0-0.2,0-0.3c0-0.1,0-0.2-0.1-0.2c0,0-0.1-0.1-0.1-0.2
				c-0.1-0.2-0.1-0.4,0.1-0.6c-0.1,0-0.2-0.1-0.2-0.1c-0.1,0-0.1-0.1-0.1-0.2c0-0.1,0-0.1,0.1-0.2c0.1,0,0.1-0.1,0.2-0.1
				c0.2-0.1,0.2-0.2,0-0.4c-0.2-0.1-0.2-0.2,0-0.4c0-0.1,0.1-0.1,0.1-0.2c0-0.2,0-0.5-0.2-0.7c0,0,0-0.1,0-0.2
				c-0.2-0.1-0.3-0.4-0.1-0.6c0.1-0.1,0-0.4-0.1-0.5c-0.2-0.2-0.2-0.3-0.1-0.6c0,0,0-0.1,0-0.1c0-0.2,0-0.5,0-0.8
				c0-0.2,0-0.5-0.1-0.7C32,41,31.9,41,31.9,40.9c0-0.2-0.2-0.3-0.3-0.4c-0.1-0.2-0.2-0.2,0-0.4c0-0.1,0.1-0.2,0-0.2
				c-0.2-0.1-0.2-0.3-0.5-0.3c0,0-0.1-0.1-0.1-0.1c0-0.2-0.1-0.4,0-0.5c0,0,0-0.1,0-0.1c0-0.3,0-0.7,0-1c0-0.1,0-0.1-0.1-0.2
				c-0.1-0.1-0.2-0.2-0.1-0.4c0-0.1,0-0.2,0.1-0.3c0,0-0.1,0-0.1-0.1c-0.2-0.1-0.2-0.2-0.2-0.3c0-0.1,0.1-0.3,0.1-0.4
				c0,0,0.1-0.1,0.1-0.1c0.2-0.1,0.3-0.1,0.2-0.4c0,0,0,0,0-0.1c0-0.1,0-0.2,0-0.2c0-0.1,0-0.3-0.1-0.4c-0.1-0.1-0.1-0.2-0.2-0.4
				c0-0.3-0.1-0.5-0.1-0.8c0-0.1,0-0.1-0.1-0.1c0,0-0.1,0-0.1,0c0-0.1,0-0.2,0.1-0.2c0-0.1,0-0.1,0.1-0.2c-0.1-0.1-0.2-0.1-0.2-0.2
				c0-0.1,0.1-0.2,0.1-0.4c0-0.2,0-0.3,0-0.5c0-0.1,0-0.1-0.1-0.1c-0.1,0.3-0.3,0.5-0.5,0.5c0.2-0.2,0.1-0.4,0-0.6c0,0,0,0,0,0
				c-0.1-0.2-0.2-0.3-0.4-0.1c-0.2,0.2-0.3,0.4-0.5,0.7c0,0.1-0.1,0.2-0.1,0.2c-0.1,0-0.2,0-0.3,0c-0.2,0-0.2-0.1-0.2-0.3
				c0-0.3-0.1-0.4-0.4-0.4c0,0.3,0,0.6,0.3,0.9c0,0-0.1,0.1-0.1,0.1c0.2,0.2,0.2,0.2,0.1,0.4c0,0.1,0,0.2,0,0.2
				c0.1,0.1,0.1,0.2,0,0.3c-0.1,0.1-0.2,0.2-0.2,0.3c0,0,0,0.1,0,0.1c0,0.1,0,0.1,0,0.2c0,0.1,0,0.1-0.1,0.2c-0.1,0-0.1,0-0.2-0.1
				c0-0.1,0-0.1-0.1-0.2c-0.2,0-0.3,0.1-0.4,0.3C27,34.9,26.9,35,27,35.2c-0.2,0.1-0.3,0.1-0.2,0.4c0,0,0,0.1,0,0.1
				c-0.1,0.2-0.2,0.3,0,0.5c0.1,0.1,0.1,0.3,0.1,0.4c0,0.2,0.1,0.4,0.1,0.6c0,0.1,0,0.2,0.1,0.3c0,0.1,0,0.2,0,0.3
				c-0.1,0.1-0.2-0.1-0.3,0c-0.1,0.1-0.1,0.3-0.2,0.4c0,0.1-0.1,0.3-0.2,0.5c-0.2-0.2-0.4-0.2-0.6-0.1c-0.1,0-0.1,0.1-0.2,0.1
				c0,0-0.1,0.1-0.1,0.1c-0.1,0.1-0.2,0.1-0.2,0c0-0.1-0.1-0.2-0.2-0.2c-0.1-0.1-0.3-0.2-0.4-0.3c0-0.1,0.1-0.1,0.1-0.2
				c0,0,0,0,0-0.1c0,0-0.1,0-0.1-0.1c-0.2-0.1-0.2-0.2-0.1-0.3c0-0.1,0-0.1,0.1-0.2c-0.1,0-0.2,0-0.3,0c0-0.1,0.1-0.2,0.1-0.2
				c0-0.1,0-0.2-0.1-0.3c-0.3-0.1-0.3-0.1-0.1-0.4c0,0,0,0,0-0.1c-0.1-0.1-0.2-0.3-0.3-0.4c-0.2,0.2-0.2,0.3-0.2,0.4
				c0,0.2,0.1,0.1,0.2,0.3c-0.1,0.1-0.1,0.3-0.1,0.4c0,0.2,0.1,0.4,0.1,0.6c0,0.1,0,0.2-0.1,0.3c-0.2,0.1-0.4,0-0.4-0.2
				c0-0.1-0.1-0.2-0.2-0.2c-0.1,0-0.2-0.1-0.2-0.2c0-0.1,0-0.3,0.1-0.4c-0.2,0-0.2-0.1-0.2-0.2c0-0.2,0-0.4,0-0.6c0,0,0,0,0,0
				c0,0,0-0.1,0-0.1c0.1-0.2,0.1-0.2,0-0.3c-0.2-0.1-0.2-0.3,0-0.4c0.1-0.1,0.1-0.1,0.2-0.2c-0.1-0.2-0.3-0.1-0.4,0
				c0-0.1,0-0.3,0-0.4c0-0.1,0-0.2,0.1-0.2c0.1-0.1,0.1-0.2,0-0.3c-0.1-0.1-0.2-0.3-0.3-0.5c0-0.1-0.1-0.3-0.3-0.3
				c0-0.1,0-0.2,0-0.3c0-0.1-0.1-0.2-0.1-0.3c0,0-0.1,0-0.2,0c0-0.4,0-0.4,0.1-0.6c0.1-0.2,0.1-0.4,0-0.6c0,0,0-0.1,0-0.1
				c0,0,0.1,0,0.1-0.1c0,0,0,0,0.1,0c0.2,0.1,0.3,0.1,0.4-0.2c0,0-0.1-0.1-0.1-0.1c0,0,0,0,0-0.1c0,0,0.1,0.1,0.2,0.1
				c0.2-0.3,0.1-0.5-0.1-0.7c-0.1-0.1-0.1-0.4,0-0.5c0.1,0,0.2-0.1,0.2-0.1c0-0.1,0-0.2,0-0.3c0,0,0-0.1,0-0.1c0.1,0,0.2,0,0.2,0.1
				c0-0.1,0.1-0.1,0.1-0.2c0,0,0,0,0.1,0c0.2,0,0.2,0,0.1-0.2c0-0.2-0.1-0.4-0.1-0.6c0-0.2-0.1-0.5-0.2-0.8c0-0.1,0.1-0.1,0.1-0.2
				c-0.2-0.1-0.4-0.2-0.6-0.2c-0.1,0-0.3,0-0.3-0.2c-0.1,0-0.2,0.1-0.3,0.1c-0.2,0.3-0.4,0.6-0.8,0.7c0,0.1,0.1,0.2,0.1,0.2
				c0.1,0.1,0.2,0.3,0.1,0.4c0,0.2-0.1,0.3-0.1,0.5c-0.3,0.1-0.4,0.3-0.2,0.6c0,0.1,0,0.2,0.1,0.3h-0.2c0,0.1,0,0.2,0.1,0.3
				c-0.1,0.1-0.2,0.1-0.3,0.1c-0.1,0.1-0.1,0.1-0.2,0.2s-0.2,0.2-0.3,0.1c-0.1,0-0.2,0-0.3,0.1c-0.1,0.1-0.2,0-0.2-0.1
				c0,0,0,0-0.1-0.1c0,0.1,0,0.2,0,0.3c-0.1-0.1-0.1-0.1-0.2-0.3c0,0.3-0.1,0.6,0,0.8c0.1,0.1,0,0.2-0.1,0.3c0,0-0.1,0-0.1,0
				c-0.1,0-0.1,0.2,0,0.3c0,0,0.1,0.1,0.2,0.1c0,0.1-0.1,0.3-0.1,0.4c0.1,0.2,0.1,0.2,0.2,0.2c0.1,0,0.1,0.1,0.2,0.2
				c0,0.2-0.1,0.3-0.2,0.5c-0.1,0-0.1,0-0.2,0c-0.1,0.2-0.2,0.4-0.2,0.6c0,0.2,0,0.3-0.2,0.3c-0.1,0-0.1,0-0.2,0c-0.1,0-0.2,0-0.3,0
				c0,0.2,0,0.2-0.1,0.4c0,0.1-0.1,0.2,0,0.2c0,0.2,0.1,0.3,0.1,0.5c0,0,0,0,0,0c0.1,0,0.2-0.1,0.3-0.1c0,0,0.2,0,0.2,0.1
				c0,0.1,0,0.2,0,0.2c0,0.1-0.1,0.1-0.2,0.2c0.1,0,0.1,0.1,0.2,0.1c0.1,0.1,0.1,0.1,0,0.2c-0.1,0.1-0.1,0.1-0.1,0.3
				c0,0,0,0.1,0,0.1c-0.1,0.1-0.2,0.2-0.3,0.3c-0.1,0.2,0.1,0.3,0.1,0.4c0,0,0,0,0,0c-0.2,0.1-0.2,0.4-0.2,0.6
				c0,0.2,0.1,0.4,0.4,0.4c-0.1,0.2,0,0.3,0.1,0.4c0.1,0.1,0.1,0.3,0.2,0.4c-0.1,0.3,0.1,0.5,0.3,0.6c0,0.1-0.1,0.2-0.1,0.2
				c0.1,0.1,0.1,0.1,0.1,0.3c0,0.1,0.1,0.2,0.2,0.3c0.1,0,0.1,0,0.2,0.1c0,0.1,0,0.3,0.1,0.4c0.1,0.1,0,0.3,0.1,0.4
				c0.2,0,0.2,0,0.4,0.3c0,0.1,0.1,0.2,0.2,0.1c0.2,0,0.2,0,0.2,0.2c0,0.3,0.1,0.4,0.4,0.3c0,0,0.1,0,0.1,0c0,0,0.1-0.1,0.1-0.1
				c0,0-0.1-0.1-0.1-0.1c0,0,0,0,0-0.1c0.2-0.2-0.1-0.4,0-0.6c0,0,0,0,0.1-0.1c0.2-0.1,0.2-0.1,0.2,0.2c0,0.1,0.1,0.2,0.2,0.2
				c0.2,0,0.2,0.1,0.1,0.3c0,0.1-0.1,0.2,0,0.3c0.2,0.3,0.5,0.5,0.8,0.4c0.1,0,0.1-0.1,0.2-0.2c0.1-0.1,0-0.3,0-0.5c0,0,0,0,0.1,0
				c0.1,0,0.2,0,0.2-0.2c0-0.1-0.1-0.2-0.2-0.2c-0.1,0-0.2-0.1-0.4-0.1c0,0-0.1-0.1-0.1-0.1c0,0,0.1-0.1,0.1-0.1
				c-0.1-0.2,0-0.3,0.2-0.3c0.1,0,0.2,0,0.3,0c0,0,0.1,0,0.2,0.1c0-0.1,0-0.1,0-0.2c0-0.1,0-0.1,0.1-0.1c0,0,0.1,0,0.1,0.1
				c0.1,0.1,0.3,0.1,0.4,0.1v-0.3c0.1,0,0.2,0,0.3,0c0,0,0.1,0,0.1,0c0-0.1,0-0.1,0-0.2c0-0.1,0-0.1-0.1-0.2c0.1,0,0.1,0,0.2,0
				c0.2,0,0.3,0,0.3-0.3c0,0,0-0.1,0-0.1c0.1-0.2,0.1-0.4,0.1-0.6c0.1-0.1,0.1-0.2,0.2-0.3c0.1,0,0.2,0.1,0.1,0.3
				c0,0.1-0.1,0.2-0.1,0.3c-0.1,0.3-0.1,0.7-0.2,1c0.1,0,0.2,0,0.3,0.1c0,0,0,0.1,0,0.1c0,0.1,0,0.1,0,0.2c0,0.2,0,0.2,0.2,0.3
				c0.1,0,0.1,0.1,0.2,0.1c0.1,0.2,0.3,0.4,0.4,0.6c0,0.1,0,0.1,0.1,0.1c0.1,0.1,0.2,0.1,0.2,0.2c0,0.1,0,0.2,0.1,0.3
				c0.1,0.3,0.3,0.6,0.5,0.9c0.1,0.2,0.1,0.3,0.4,0.3c0,0.1-0.1,0.2-0.1,0.3c0.1,0.1,0,0.2,0,0.4c0,0,0.1,0,0.2,0c0.1,0,0.2,0,0.2,0
				c0.1,0,0.2,0,0.3-0.2c-0.1-0.2-0.1-0.3,0-0.4c0.1-0.1,0.3-0.1,0.4-0.2c0.1,0,0.1,0.1,0.1,0.2c0,0-0.1,0.1-0.1,0.1
				c0,0.1-0.1,0.2-0.1,0.3c0.1,0.2-0.1,0.4,0,0.6c-0.2,0-0.5-0.2-0.6,0.2c0.1,0.1,0.2,0.2,0.3,0.2c-0.1,0.1-0.2,0.2-0.2,0.4
				c0,0.1-0.1,0.2,0,0.2c0.1,0.1,0.2,0.2,0.3,0.3c0.1,0.1,0.2-0.1,0.2-0.1c0,0,0,0,0,0c0,0.1,0,0.2-0.1,0.2c-0.1,0-0.1,0.1-0.2,0.1
				c0,0,0,0.1,0,0.1c0,0,0.1,0.1,0.1,0.1c0.1,0,0.1,0,0.2,0c-0.1,0.1-0.1,0.3-0.2,0.4c0,0.1,0,0.2,0.1,0.3c0.2,0.1,0.2,0.2,0,0.4
				c0,0.1-0.1,0.1,0,0.2c0.1,0.2,0.2,0.4,0.3,0.7c0,0,0,0,0.1,0c0.1,0,0.2,0.1,0.2,0.2c0,0.1-0.1,0.2-0.1,0.2
				c-0.1,0.1-0.3,0.2-0.3,0.4c0.2,0,0.4,0,0.5-0.1c0,0,0,0,0-0.1c0.1-0.1,0.3,0,0.3,0.2c0,0.4,0,0.7,0.3,0.9c0.1,0.1,0.1,0.2,0,0.3
				c0,0-0.1,0.1-0.1,0.2c0,0.1-0.1,0.2-0.1,0.3c0,0.1,0,0.1,0,0.2c0.1,0,0.2,0,0.3-0.1c0,0.1,0,0.2,0,0.3c0,0.1-0.1,0.2-0.2,0.1
				c0,0-0.1-0.1-0.1-0.1c0,0-0.1,0-0.1,0c-0.1,0.1-0.1,0.3,0,0.3c0,0,0.1,0,0.1,0c0.1,0.1,0.1,0.1,0.1,0.3c0,0-0.1,0-0.2,0
				c-0.2,0-0.2,0.1-0.3,0.3c0,0,0,0.1,0,0.1c0,0.1,0,0.1,0,0.2c0,0.1,0.1,0.1,0.1,0.2c0.1,0.1,0.2,0.2,0.3,0.2c0,0,0.1,0,0.2,0
				c0,0.1,0.1,0.2,0,0.4C28.8,54,28.8,54,29,54.2c0,0,0,0.1,0.1,0.1c0,0.1-0.1,0.2-0.1,0.3c0,0.2,0,0.4,0,0.6c0,0.1,0,0.2,0.2,0.3
				c0,0,0.1,0.1,0.1,0.1c0,0.1,0.1,0.2,0.1,0.2c0.1,0,0.2,0,0.3,0c-0.1,0.1-0.1,0.2-0.1,0.2c0,0.2,0.1,0.3,0.3,0.3
				c0.1,0,0.1,0.1,0.2,0.2c0.1,0.2,0.2,0.5,0.2,0.7c0,0.1,0.1,0.3,0.1,0.3c0.1,0,0.1-0.1,0.1-0.2c0-0.2,0-0.4,0-0.6
				c0-0.1,0-0.2-0.1-0.2c0.1-0.2,0.1-0.3,0-0.4c0,0-0.1-0.1-0.1-0.1c-0.1-0.2-0.2-0.3-0.4-0.3c-0.2,0-0.2-0.2-0.1-0.4
				c0.1-0.2,0.1-0.4,0.1-0.6c0,0,0-0.1-0.1-0.1c-0.1-0.1-0.1-0.2-0.1-0.3v-0.4c0.2-0.2,0.4-0.5,0.5-0.7c0.1-0.2,0.2-0.3,0.4-0.3
				c0.1,0,0.1,0,0.2-0.1c0-0.2,0.1-0.2,0.2-0.2v0c0,0,0.1-0.1,0.1,0c0.1,0.1,0.3,0.1,0.4,0.2c0.1,0,0.1,0.1,0.1,0.2
				c-0.1,0.2,0,0.3,0.2,0.4c0.2,0.1,0.4,0.1,0.5,0c0.4-0.1,0.8,0.2,0.6,0.8c0,0,0,0.1,0,0.1c0,0.1,0.1,0.2,0.2,0.1
				c0.1-0.1,0.2-0.2,0.3-0.3C33.3,54,33.2,53.9,33.1,53.8z M20.7,30.3C20.7,30.3,20.8,30.3,20.7,30.3C20.8,30.4,20.7,30.4,20.7,30.3
				C20.7,30.4,20.7,30.3,20.7,30.3C20.7,30.3,20.7,30.3,20.7,30.3z M19.5,39.6C19.5,39.6,19.4,39.6,19.5,39.6
				c-0.1-0.1-0.1-0.2,0-0.2C19.5,39.5,19.5,39.6,19.5,39.6z M27.1,36.6c-0.2-0.1-0.2-0.1,0-0.3V36.6z M30.7,52.4c0,0,0-0.1,0-0.1
				c0,0,0-0.1,0.1-0.1c0,0,0.1,0,0.1,0c0,0.1,0,0.1,0,0.2C30.8,52.5,30.7,52.5,30.7,52.4z"/>
			<path class="st1" d="M16.1,43.3c-0.1,0.3-0.1,0.5-0.3,0.8c0-0.1-0.1-0.1-0.1-0.2c-0.1-0.1-0.1-0.1-0.2-0.1
				c-0.1,0-0.2,0.1-0.2,0.2c0,0.1,0,0.2,0.1,0.2c0.2,0.1,0.2,0.3,0,0.4c0,0.1,0,0.1,0,0.2c-0.1,0-0.2,0-0.3,0c-0.1,0.1,0,0.2,0,0.3
				c0.1,0.2,0.2,0.4,0.2,0.7c0,0.1,0,0.2,0,0.3c-0.1,0.1-0.1,0.1,0,0.3c0,0.1-0.1,0.2-0.1,0.3c0,0.1,0,0.2-0.1,0.2
				c-0.1,0-0.2,0-0.2-0.1c0,0-0.1-0.1-0.1-0.1c0,0-0.1,0.1-0.1,0.1c0,0,0.1,0,0.1,0.1c0,0.3,0.2,0.5,0.3,0.7c0,0.1,0,0.1,0.1,0.2
				c0.1,0.2,0.1,0.2,0,0.4c0.1,0,0.2,0.1,0.2,0.1c0,0,0.1,0.1,0.1,0.1c0,0-0.1,0.1-0.1,0.1c-0.1,0.1-0.2,0.2-0.3,0.3
				c-0.1,0.1-0.1,0.1-0.2,0.1c-0.1-0.1-0.2,0-0.4,0c-0.3,0.1-0.4,0-0.5-0.3c0,0,0.1,0,0.1,0c0-0.2-0.1-0.3-0.2-0.5c0,0,0,0,0,0
				c-0.3,0.1-0.4,0.6-0.2,0.8c0.1,0.1,0.2,0.3,0.3,0.4c0,0.1,0.1,0.1,0.2,0.1C14,50,13.9,50,13.8,50c-0.1,0-0.2-0.1-0.3-0.1
				c-0.2,0-0.2,0-0.2,0.2c0,0.1,0,0.1,0,0.2c-0.2-0.1-0.3-0.5-0.2-0.7c0.1-0.3,0.2-0.6,0.2-0.9c0-0.1,0-0.1,0-0.2c0-0.1,0-0.3,0-0.4
				c0-0.2,0-0.4,0.2-0.5c0-0.1-0.1-0.1-0.1-0.1c0,0,0-0.1,0-0.2c0.1-0.2,0.2-0.4,0.3-0.6c-0.1-0.3-0.2-0.5-0.3-0.9
				c0-0.2,0-0.2,0.2-0.2c0.1,0,0.2-0.1,0.1-0.2c0-0.1-0.1-0.2-0.1-0.3c0-0.1,0.1-0.1,0.2-0.2c0.1-0.1,0.1-0.5,0-0.6
				c-0.1,0-0.1,0-0.2,0c-0.1,0-0.2,0.1-0.3,0.1c0,0,0,0,0,0c0.1,0.2,0.1,0.4,0,0.6c-0.1,0.1,0,0.3-0.1,0.4S13,45.8,13,45.9
				c0,0.1,0,0.2,0.1,0.3c0.1,0.1,0.2,0.3,0.1,0.5c0,0.1,0,0.1-0.1,0.1c0,0-0.1,0-0.1-0.1c-0.1-0.2-0.2-0.4-0.2-0.6
				c0-0.2,0-0.4-0.1-0.5c-0.1-0.1-0.1-0.4-0.1-0.6c0-0.1,0-0.1-0.1-0.2c-0.1,0.1-0.2,0.3-0.2,0.5c0,0.1,0,0.2-0.1,0.3
				c-0.1,0.1-0.1,0.3,0,0.4c0.1,0.1,0.1,0.3,0,0.4c-0.1,0.1-0.1,0.2-0.1,0.4c0.1,0,0.3,0,0.5,0c0,0.1,0,0.2-0.1,0.3
				c-0.1,0.1-0.1,0.1,0,0.2c0.1,0.2,0.1,0.4,0.2,0.6c0,0.1,0.1,0.1,0,0.3c0,0.1,0.1,0.1,0.1,0.2c0,0.1,0,0.2-0.1,0.2
				c-0.2,0.1-0.3,0.2-0.3,0.5c0,0.1,0,0.3-0.1,0.4c0,0,0,0.1,0,0.1c0,0.1,0,0.1,0,0.2c0,0.2,0,0.4-0.3,0.2c0-0.1,0-0.3,0-0.5
				c0-0.1,0-0.2,0-0.2c-0.1-0.1-0.1-0.3,0-0.4c0-0.2,0.1-0.3,0.2-0.4c0,0,0,0,0-0.1c0,0,0,0-0.1,0c-0.2,0-0.3-0.1-0.4-0.3
				c0,0,0-0.1-0.1-0.1c0,0-0.1,0-0.1,0c-0.1,0.1-0.2,0.2-0.3,0.3c0,0,0,0.1,0,0.2c0,0.2,0.1,0.4-0.1,0.5c-0.1,0-0.1-0.1-0.2-0.1
				c0,0.1,0,0.3-0.2,0.3c0,0,0,0-0.1,0.1c-0.1,0.2,0,0.6,0.2,0.8c0,0,0,0,0,0c-0.4,0.1-0.4,0.1-0.5-0.4c0-0.1-0.1-0.2-0.1-0.3
				c-0.1,0.1-0.2,0.1-0.3,0.1c-0.1-0.1-0.4-0.1-0.4-0.4c0-0.2-0.2-0.4,0-0.5c0,0-0.1-0.1-0.1-0.1c-0.1-0.1-0.1-0.3,0.1-0.4
				c0.2-0.1,0.2-0.2,0-0.4c-0.1-0.1-0.1-0.2-0.1-0.5c-0.3-0.2-0.2-0.5-0.1-0.7c0.1-0.2,0-0.4,0.1-0.6c0,0,0-0.1,0-0.1
				c-0.1-0.1-0.1-0.3-0.1-0.5c-0.1,0-0.1,0-0.2,0c-0.1,0-0.2,0-0.2-0.2c0-0.1,0.1-0.2,0.1-0.4c-0.1,0-0.1-0.1-0.2-0.1
				c0.1-0.1,0.2-0.2,0.2-0.3c0-0.1-0.1-0.2-0.2-0.3C9,44,9.1,43.9,9.1,43.9c-0.2-0.2-0.1-0.3,0-0.5c0,0-0.1,0-0.1,0
				c-0.2-0.1-0.3-0.1-0.2-0.4c0-0.1,0-0.2,0-0.3c-0.1-0.1-0.1-0.2-0.1-0.3c0-0.1,0.1-0.2,0.1-0.3c0,0-0.1-0.1-0.2-0.1
				c0,0,0-0.1,0.1-0.2c-0.1,0-0.1,0-0.2,0c0,0,0,0,0,0c0.1-0.2,0-0.4-0.1-0.6c0-0.1,0-0.2,0-0.2c0,0,0.1-0.1,0.1-0.1
				c0.1-0.1,0.1-0.2,0.3-0.2c0,0,0.1,0,0.1,0c0,0,0-0.1,0-0.1c-0.1-0.1-0.2-0.3-0.3-0.4c0,0,0,0,0,0c-0.1-0.1-0.1-0.2-0.2-0.3
				c0-0.1,0-0.2,0-0.3c0,0-0.1,0-0.1,0c-0.1,0-0.2-0.2-0.1-0.3c0.1-0.2,0-0.4-0.1-0.5c-0.1-0.1-0.1-0.2-0.1-0.4c0-0.2,0-0.5,0.3-0.7
				c0,0,0.1,0.1,0.1,0.1c0.2-0.1,0.2-0.2,0.2-0.4c0-0.1,0-0.2,0.1-0.3c0,0,0.1-0.1,0.1-0.2c0-0.1,0-0.2-0.1-0.2
				c-0.3,0-0.4-0.2-0.6-0.4c0,0,0,0,0,0c-0.2,0-0.3,0.1-0.4,0.1c0,0-0.1,0-0.1,0c-0.2,0.1-0.3,0.1-0.5,0c0,0-0.1-0.1-0.1-0.1
				c-0.1-0.1-0.1-0.2-0.2-0.3c0.1-0.1,0.2-0.2,0.1-0.4C6.9,35.3,7,35.2,7,35c0.1,0,0.1,0,0.2,0c0-0.1-0.1-0.2-0.1-0.4
				c0.1-0.1,0.3,0,0.3-0.2c0-0.2,0-0.3-0.1-0.4c0-0.1,0.1-0.1,0.1-0.1c0-0.1,0-0.2,0-0.2c0-0.1-0.1-0.1-0.2,0
				c-0.1,0-0.1,0.1-0.1,0.1c-0.2,0.1-0.3,0.1-0.4-0.2c0,0,0-0.1,0-0.1c0,0,0,0-0.1,0c-0.3,0-0.3,0-0.4-0.2c0-0.1-0.1-0.2-0.1-0.2
				c-0.1,0-0.2,0-0.4-0.1c0-0.1,0-0.2,0-0.4c-0.1,0-0.1,0-0.2,0c-0.1-0.1,0-0.2,0.1-0.3c0.2-0.1,0.2-0.4,0.2-0.6c0,0,0-0.1-0.1-0.1
				c-0.1-0.1-0.1-0.2,0-0.3C5.9,31,6,31,6,30.9c0-0.1-0.1-0.2-0.2-0.3c0.1-0.1,0.2,0,0.4-0.1c0.2-0.1,0.2,0.1,0.4,0.1
				c0.1-0.1,0-0.2,0-0.4c0,0,0-0.1,0.1-0.1C6.8,30.1,6.9,30,7,30c0,0,0,0,0-0.1c0-0.3,0-0.6-0.1-0.8c0-0.2-0.1-0.4-0.2-0.5
				c0,0,0,0-0.1,0c-0.1-0.1-0.1-0.2,0-0.3c0,0,0,0,0.1,0c0-0.1-0.1-0.3,0.1-0.5c0.1,0.2,0.3,0.2,0.4,0.4c0,0.1,0.2,0.1,0.2,0.1
				c0.3-0.1,0.7-0.2,1-0.5c0,0,0.1,0,0.2,0c0,0,0.1,0.1,0.1,0.2c0,0.1,0,0.1-0.1,0.2c0.2,0.1,0.3,0.4,0.6,0.4c0.1,0,0.1,0.1,0.1,0.1
				c0.1,0.1,0.1,0.2,0,0.3c0,0,0,0,0,0c0,0,0,0,0,0.1c0.3,0.1,0.3,0.4,0.5,0.6c0,0,0,0.1,0,0.2c0,0,0,0,0,0c0,0,0,0,0,0c0,0,0,0,0,0
				l0,0c0.1-0.1,0.2-0.2,0.4-0.1c0.1,0,0.2,0,0.3,0c0,0,0,0,0,0h0c0.1,0,0.3,0,0.4,0c0.1,0,0.3,0,0.3,0.2c0,0,0.1,0.1,0.1,0.1
				c0.1,0.1,0.2,0.1,0.2,0.3c0,0.2,0,0.4-0.3,0.5c0,0,0,0.1,0,0.1c0,0.2,0,0.3-0.2,0.4C11,31.5,11,31.5,11,31.7
				c0,0.1,0.1,0.2,0.2,0.2c0.1,0,0.2,0.1,0.2,0.2c0.1,0.2,0.3,0.2,0.4,0.2c0.1,0,0.2,0,0.3,0.1c0.1,0.1,0.1,0.2,0,0.3
				c0,0.1-0.1,0.1-0.1,0.2c0.1,0,0.2,0,0.2,0c0,0.1,0,0.1,0,0.2c0,0.1,0.1,0.1,0.1,0.2c0.2,0.1,0.2,0.1,0.1,0.4
				c0,0.1-0.1,0.3,0.1,0.4c0.1,0,0.1-0.1,0.2-0.1c0.1-0.1,0.2,0,0.3,0.1c0,0.1,0.1,0.1,0.1,0.2c0.1,0.1,0.2,0.4,0.1,0.5
				c-0.1,0.2-0.1,0.4-0.1,0.6c0,0.2,0.1,0.4,0.1,0.7c0,0.1,0.1,0.2,0.1,0.2c0,0,0.1,0,0.1,0c0.2,0.1,0.3,0.1,0.2,0.4
				c-0.1,0.1,0,0.2,0,0.3c0.1,0,0.2,0,0.4-0.1c0,0.1,0,0.2-0.1,0.3c-0.1,0-0.1,0-0.2-0.1c0,0,0,0,0,0.1c0,0.2,0,0.4,0.2,0.4
				c0.1,0.1,0.2,0.2,0.2,0.4c0,0.1,0,0.3,0,0.4c0,0,0,0,0,0c0.1,0,0.3-0.1,0.4,0.1c0.1,0.1,0.1,0.1,0.2,0.2c0,0,0,0.1,0,0.1
				c0,0,0,0.1,0,0.1c0.1,0.1,0.3,0.3,0.4,0.4c0.1,0.1,0.2,0.1,0.3,0.3c0,0,0.1,0.1,0.1,0.1s0.1,0.1,0.1,0.1c-0.1,0-0.2,0-0.3,0
				c-0.1,0-0.2,0.1-0.1,0.2c0.1,0.2,0,0.3-0.1,0.4c0,0-0.1,0.1-0.1,0.2v0c-0.2,0.1-0.2,0.2-0.1,0.3c0.1,0.1,0.1,0.2,0.4,0.2
				c-0.1,0.2-0.1,0.3,0,0.4c0.1,0.1,0.1,0.3,0.3,0.5c0.1,0.1,0,0.2-0.1,0.3c-0.2,0.1-0.2,0.1,0,0.3C16,43.1,16,43.2,16.1,43.3z"/>
			<path id="XMLID_00000067941791623650487810000002550622576741602236_" class="st1" d="M7.9,28.7c0-0.1,0-0.1,0.1-0.2
				c-0.2,0-0.2,0-0.4-0.1c-0.1-0.1-0.2-0.2-0.2-0.3c-0.1-0.1-0.2-0.2-0.2-0.2c-0.1,0-0.2,0-0.2,0C6.7,28,6.5,28,6.3,28.2
				c-0.1,0.1-0.2,0.1-0.2,0C6,28,5.9,28,5.8,28c-0.1,0-0.2-0.2-0.3-0.3c0.1-0.2,0.1-0.5,0.1-0.8c0,0,0,0,0-0.1c0-0.1,0.1-0.2,0-0.3
				c-0.1-0.1-0.2-0.1-0.2-0.1c-0.1-0.1-0.1-0.1-0.2-0.2c0,0,0,0,0,0c-0.2,0-0.4,0-0.5,0.3c0,0.1-0.1,0.1-0.2,0.1
				c-0.1,0-0.3-0.1-0.4-0.1c0,0-0.1-0.1-0.1-0.1c0,0,0-0.1-0.1-0.2c0,0.1,0,0.2,0,0.3c-0.3,0.1-0.4,0-0.5-0.3c-0.1,0-0.2,0-0.3-0.1
				c0,0,0-0.1-0.1-0.1c-0.2-0.1-0.4-0.1-0.5-0.2c-0.2-0.1-0.4-0.3-0.7-0.4c0,0-0.1-0.1-0.1-0.1c-0.1-0.2-0.2-0.2-0.3-0.2
				s-0.3-0.1-0.4-0.2c0.1-0.3,0-0.4-0.2-0.5c0,0-0.1-0.1-0.1-0.1c0-0.3-0.2-0.4-0.3-0.6c0-0.1-0.1-0.1-0.1-0.2
				c-0.1-0.2,0-0.3,0.2-0.2c0,0,0.1,0,0.1,0c0-0.2,0.1-0.4-0.1-0.5c0.1-0.2,0.2-0.3,0.3-0.5c0.1-0.1,0.2-0.3,0.3-0.5
				C1,21.5,1,21.4,1,21.3c0-0.2,0-0.3,0.2-0.3c0,0,0.1,0,0.1,0c0.2,0,0.2,0,0.3,0.2c0,0.1,0,0.1,0.1,0.2c0.1,0,0.3,0,0.3,0.1
				c0,0,0.1,0.1,0.2,0.1c0,0,0.1-0.1,0.1-0.1c0,0,0,0,0-0.1C2.5,21,2.5,21,2.8,21c0-0.1,0-0.1,0-0.2c-0.1-0.1,0-0.3,0-0.4
				c0.1-0.2,0.2-0.4,0.3-0.6c0-0.1,0-0.2,0-0.3c0,0,0,0,0.1-0.1c0.1-0.1,0.2-0.2,0-0.4c-0.2-0.2,0-0.4-0.1-0.5c0,0,0.1-0.1,0.2-0.1
				c0.2,0,0.3,0.1,0.5,0.2c0.1,0,0.1,0.1,0.2,0.1c0.1,0,0.2,0,0.3,0c0-0.1,0-0.2,0-0.3c0.1,0.1,0.1,0.1,0.2,0.2
				c0.2-0.1,0.4-0.1,0.6,0.3c0.1-0.2,0.2-0.2,0.4-0.1c0.1,0,0.2,0,0.2-0.1c0.1-0.2,0.3-0.2,0.4,0c0,0.1,0,0.2,0.2,0.2
				c0.2,0,0.3,0,0.5,0c0,0,0.1-0.1,0.1-0.1c0-0.1,0-0.3-0.1-0.4c-0.1-0.2,0-0.4,0.2-0.5c0.1,0,0.2,0,0.3,0c0-0.1,0-0.3-0.1-0.4
				c0.2-0.1,0.3-0.1,0.4,0.1c0.2-0.2,0.9-0.2,1.1,0c0,0-0.1,0.1-0.1,0.1c0,0.1-0.1,0.2,0,0.3c0,0.1,0.1,0.1,0.2,0.2
				c0.1,0.1,0.2,0.2,0.2,0.3c0.1,0.1,0.2,0.1,0.3,0.1c0.1-0.1,0.3,0,0.4-0.2c0-0.1,0.2,0,0.2,0.1c0.1,0.2,0.1,0.3,0.3,0.2
				c0,0,0.1,0,0.2,0c0.1,0.1,0.2,0.1,0.3,0.2c0.1,0.1,0.3,0.1,0.4-0.1c0,0,0.1-0.1,0.1-0.1c0.2,0,0.4,0,0.6,0c0.1,0,0.2,0.1,0.3,0.1
				c0,0.1,0,0.2,0,0.3c-0.1,0-0.1,0.1-0.2,0.1c0,0,0,0.1,0,0.1c0.1,0.1,0.1,0.2,0.1,0.4c0,0.3,0,0.6,0,0.9c0,0.1,0,0.2-0.1,0.2
				c-0.1,0.2-0.1,0.4,0.1,0.6c0.2,0.1,0.3,0.3,0.1,0.6c0,0.1-0.1,0.2,0,0.2c0.1,0.1,0.1,0,0.2,0c0,0,0.1,0,0.1-0.1
				c0,0,0.1,0,0.1,0.1c0.5,0.3,0.6,0.5,0.4,1.1c0,0.1,0,0.2,0,0.3c0,0.2,0,0.3-0.2,0.3c-0.1,0-0.2,0.1-0.2,0.2s0,0.3,0.1,0.4
				c0,0,0,0,0.1,0.1c0,0.1-0.1,0.1-0.1,0.2c0.1,0.2-0.1,0.3-0.2,0.3c0,0.1,0.1,0.1,0.1,0.2c0.1,0.2,0.1,0.5,0,0.7
				c-0.1,0.1-0.2,0.6,0,0.7c0.2,0.1,0.2,0.3,0.1,0.5c0,0,0,0,0,0.1c0,0,0.1,0,0.1,0c0.1,0.1,0.2,0.2,0.3,0.4c0,0.1,0,0.2,0.1,0.3
				c0.1,0.2,0.1,0.4-0.1,0.5c0,0,0,0.1,0.1,0.1c0.1,0.2,0.1,0.3-0.1,0.4C13.2,28.9,13,29,13,29.2c0,0.1-0.1,0.2-0.2,0.2
				c-0.1,0.1-0.2,0.1-0.2,0.4c0,0.1,0,0.3-0.1,0.5c-0.1,0.1-0.1,0.2,0,0.3c0,0,0.1,0.1,0.1,0.1c-0.1,0.1-0.3,0.1-0.4,0.1
				c-0.1,0-0.2,0-0.4,0.1c-0.1,0.1-0.2,0.1-0.3,0.1s-0.2-0.2-0.2-0.3c0-0.1,0-0.1,0.1-0.2c-0.1,0-0.1,0-0.2,0
				c-0.2,0.1-0.3,0-0.3-0.2c0-0.1,0-0.1-0.1-0.2c-0.1,0-0.1,0-0.1,0.1c-0.2,0.2-0.3,0.2-0.5-0.1c-0.1-0.1-0.1-0.1-0.2-0.2
				C10,30,9.9,29.9,9.8,30c-0.2,0.1-0.4,0-0.5-0.1c-0.2-0.1-0.3-0.1-0.4,0c-0.2,0.2-0.3,0.2-0.4-0.1c0,0-0.1-0.1-0.1-0.1
				C8.1,29.7,8,29.6,8,29.4c0-0.1,0-0.3,0-0.4C8,28.9,8,28.8,7.9,28.7z"/>
			<path id="XMLID_00000023270249914582107010000007831001633478486703_" class="st1" d="M13.1,14.5c0,0-0.1,0-0.1-0.1
				c-0.1-0.1-0.1-0.2,0-0.3c0,0,0-0.1,0.1-0.1c0-0.2,0-0.3-0.2-0.4c-0.1-0.1-0.1-0.1,0-0.3c0-0.1,0.1-0.1,0.1-0.2c0-0.2,0-0.4,0-0.6
				c0.2-0.1,0.2-0.2,0.2-0.4c0-0.2-0.2-0.2-0.3-0.2v-0.3c0.1-0.1,0.2,0.1,0.3-0.1c-0.1-0.2-0.2-0.3-0.3-0.5c0,0,0-0.1-0.1-0.1
				c-0.1-0.1-0.3,0-0.2-0.2c0-0.1,0.1-0.2,0.2-0.3c0-0.1-0.1-0.2-0.1-0.3c-0.1-0.1-0.2-0.3-0.4-0.4c-0.2-0.1-0.3-0.2-0.2-0.5
				c0,0,0-0.1,0-0.2c-0.1,0-0.1,0-0.1,0c-0.1,0.1,0,0.3-0.1,0.5c-0.2,0.1-0.2,0.1-0.3,0.2c0.1,0,0.2,0.1,0.2,0.2
				c0,0.1-0.1,0.1-0.1,0.2c0.2,0.2,0.3,0.4,0.3,0.7h-0.3c0,0-0.1,0.1-0.1,0.1c-0.2,0.2-0.2,0.2-0.1,0.4c0,0,0,0.1,0,0.1
				c-0.3,0.3-0.3,0.2-0.5,0c0,0,0-0.1-0.1-0.1c-0.1-0.2-0.4-0.2-0.5,0c0,0-0.1,0.1-0.1,0.1c-0.2,0-0.4,0-0.6-0.1
				c-0.1-0.1-0.3-0.2-0.4-0.4C9,11,8.9,10.9,8.8,10.8c-0.1,0-0.2-0.1-0.2-0.2c0-0.1,0-0.2-0.1-0.2c-0.2-0.1-0.3-0.1-0.5-0.2
				C7.9,10.1,7.8,10,7.8,9.9c0-0.2-0.1-0.3-0.3-0.4c0.2-0.2,0.1-0.5,0-0.7c-0.1-0.2-0.1-0.4,0-0.7c-0.1,0-0.2,0-0.3,0.1
				c0,0,0,0,0-0.1C7.2,8.1,7.3,8,7.3,8c0.1-0.1,0-0.2-0.1-0.2C7.1,7.7,7.1,7.7,7,7.6C6.8,7.3,6.6,7.3,6.3,7.5
				c-0.1,0.3,0,0.4,0.2,0.5c0.1,0,0.2,0,0.3,0C6.9,7.9,7,8,6.9,8.2c0,0.1,0,0.1,0,0.2c0,0,0,0,0,0.1h0.2c0,0.1,0,0.2,0.2,0.3
				c0.1,0,0.1,0.2,0.1,0.2c0,0.1-0.1,0.2-0.2,0.2C7,9.2,6.9,9.2,6.8,9.4C6.6,9.2,6.4,9,6.2,8.8C6,8.9,6,8.9,6.1,9.2
				C6,9.4,5.9,9.4,5.8,9.3C5.7,9.2,5.6,9.2,5.5,9.2c0,0-0.1-0.1-0.1-0.2c0-0.1,0-0.1-0.1-0.2C5.2,8.6,5,8.6,4.8,8.8
				c0,0-0.1,0.1-0.1,0.2C4.7,9.1,4.6,9.1,4.4,9.1C4.3,9,4.3,9,4.3,8.8c0-0.1,0-0.1-0.1-0.2C4.1,8.5,4.1,8.5,4.3,8.3
				c0.1,0,0.2,0.1,0.2,0.1c0.1-0.1,0.2-0.2,0.2-0.3C4.6,8,4.5,7.9,4.4,7.8C4.4,7.7,4.3,7.5,4.3,7.4C4,7.4,3.9,7.3,3.8,7
				c0-0.1-0.1-0.1-0.2-0.1c0,0-0.1,0-0.2,0.1C3.2,6.9,3.1,6.6,2.9,6.6c0,0.1,0,0.2,0.1,0.3c0.2,0.2,0.2,0.6,0.3,0.9
				c0,0.2,0,0.2-0.2,0.2C3,8,2.9,8,2.8,8C2.8,8,2.7,8,2.6,8.1C2.5,8.2,2.4,8.4,2.4,8.6c-0.1,0-0.1,0-0.2,0C2.1,8.6,2,8.7,2.1,8.8
				c0,0.1,0,0.1,0.1,0.1c0,0.1,0.1,0.1,0.1,0.2C2,9.3,1.8,9.4,1.5,9.5C1.2,9.6,1,9.8,0.8,10c-0.1,0.1-0.1,0.2,0,0.4
				c0,0,0.1,0.1,0.1,0.1c-0.1,0.2-0.2,0.4-0.3,0.6c0,0,0,0-0.1,0.1c-0.1,0.1-0.1,0.2-0.2,0.3c-0.1,0.2-0.1,0.4-0.2,0.6
				c-0.1,0.3-0.1,0.3,0.2,0.4c0,0,0,0,0,0.1c-0.1,0-0.1,0.1-0.2,0.1c0,0-0.1,0.1,0,0.1c0.1,0.2,0.2,0.3,0.2,0.5
				c0.1-0.1,0.3-0.3,0.4-0.4C1,13,1.1,13,1.1,13.1c0,0,0.1-0.1,0.1-0.1c0,0,0.1-0.1,0.2-0.1c0.1,0.2,0.2,0.4,0.2,0.6
				c0.1,0.2,0.2,0.2,0.4,0.1c0,0,0.1,0,0.2-0.1c0,0.1,0,0.1,0,0.1C2,13.8,2,13.9,2.3,14c0,0,0.1,0,0.2,0c0,0,0.1,0,0.2,0.1
				c0.1,0.1,0.2,0.2,0.2,0.3c0,0.1,0,0.2,0,0.4c0,0.2,0,0.3,0.2,0.4c0.1,0.1,0.2,0.1,0.3,0.3c0.3,0.6,0.3,0.4,0.8,0.5h0
				c0.1,0,0.2,0,0.3,0.1c0,0,0.1,0.1,0.2,0.1c0.2-0.1,0.3-0.2,0.5-0.3c0.2,0,0.4,0,0.5,0.2c0,0,0,0,0.1,0c0.2,0.1,0.2,0.1,0.2,0.4
				c0,0.1,0,0.2,0,0.3c-0.1,0.1-0.3,0-0.3,0.2c0.1,0.1,0.2,0.2,0.4,0.3c0,0.1-0.1,0.1-0.1,0.2c0.1,0.2,0.3,0,0.4,0.1
				c0,0.2,0.2,0.2,0.3,0.2c0.5,0,1.1,0,1.6,0c0.3,0,0.3,0,0.6-0.1c0,0,0,0,0.1,0c0,0.1,0,0.1,0,0.2c0,0.1,0,0.2,0,0.3
				c0,0.2,0,0.3,0.2,0.4c0.1,0,0.1,0.1,0.2,0.2c0.1,0.1,0.2,0.1,0.3,0c0.1-0.1,0.3-0.1,0.5-0.1c0.1,0,0.2,0.1,0.3,0.1
				c0.1,0,0.2,0,0.2,0c0.1-0.1,0.2-0.1,0.3,0V19c0,0,0.1,0,0.1,0c0.3,0,0.7,0,1,0c0.2,0,0.2,0,0.3-0.2c0-0.1,0.1-0.2,0.2-0.3
				c0,0,0,0,0.1-0.1c0.2-0.2,0.1-0.3-0.1-0.5c0,0,0,0,0-0.1c0.1-0.1,0.2-0.2,0.1-0.4c0,0,0,0,0,0c0.1-0.2,0.2-0.4,0.3-0.5
				c0.2-0.1,0.2-0.3,0.2-0.5c-0.1-0.1-0.2-0.1-0.1-0.3c0-0.2,0-0.4,0.1-0.7c0-0.2,0-0.4,0.2-0.5C13.3,14.9,13.2,14.7,13.1,14.5z
				 M1.3,9.9c0.1,0,0.1,0,0.1,0.1C1.4,10,1.3,9.9,1.3,9.9z"/>
			<path id="XMLID_00000152254713043849684290000001073458769927578505_" class="st1" d="M30.8,20.7c0,0-0.1-0.1-0.1-0.1
				c-0.1-0.1-0.2-0.2-0.3-0.3c-0.3,0.2-0.3,0.2-0.4,0c0.1-0.3,0-0.4-0.2-0.6c-0.1,0.1-0.1,0.1-0.2,0.2c0-0.1,0-0.1-0.1-0.2
				c0-0.2-0.1-0.2-0.3-0.2c0,0-0.1,0-0.2,0c-0.1,0-0.1-0.1-0.2-0.1c-0.1-0.1-0.1-0.2-0.2-0.3c-0.1,0-0.1,0-0.2,0
				c-0.1,0-0.2,0-0.3-0.1c0,0,0-0.1-0.1-0.2c0-0.1-0.1-0.1-0.1-0.1c-0.2-0.1-0.4-0.2-0.6-0.1c-0.2,0.1-0.4,0.1-0.6,0
				c-0.1,0-0.2,0-0.3,0.1c0,0.1-0.1,0.1-0.1,0.1c-0.1,0-0.3,0-0.4,0.1c-0.1,0-0.3,0-0.4-0.2c0,0-0.1,0-0.1,0c0,0-0.1,0.1,0,0.1
				c0,0.1,0,0.1,0.1,0.2c-0.2,0.1-0.3-0.1-0.4-0.2C25,18.9,24.9,19,24.7,19c-0.2,0-0.4,0-0.5-0.2c0,0-0.1-0.1-0.2-0.1
				c0,0,0,0.1-0.1,0.1c0,0,0,0.1,0,0.1c-0.1-0.1-0.3-0.1-0.4-0.1c-0.1,0-0.2,0-0.2,0c-0.1,0-0.3,0-0.4,0.1c0,0-0.1-0.1-0.1-0.1
				c0,0-0.1-0.1-0.1-0.1c-0.1-0.1-0.2-0.1-0.4,0c-0.2,0.1-0.3,0.1-0.3-0.2c0-0.2-0.1-0.2-0.2-0.2c-0.1,0-0.1,0-0.2,0.1
				c0,0.1-0.1,0.1-0.1,0.1c-0.2,0-0.4,0.1-0.5-0.1c0,0-0.1-0.1-0.2-0.1c-0.1,0-0.2,0-0.3,0c-0.1,0-0.2,0.1-0.2,0.2
				c0,0.1-0.1,0.1-0.2,0c-0.1-0.1-0.2-0.1-0.3-0.1c-0.1,0-0.2,0.1-0.2,0.3c0,0.1,0,0.2,0,0.3h0.2c0,0.2,0,0.4-0.1,0.5
				c-0.1,0.1-0.2,0.4-0.2,0.5c0,0.2,0.1,0.2,0.4,0.2c0,0.1-0.1,0.2-0.1,0.2c0,0.1,0,0.2,0,0.2c0.1,0.1,0.1,0.1,0.1,0.2
				c0,0.1,0.2,0.2,0.2,0c0,0,0-0.1,0.1-0.1c0,0,0,0,0,0c0.1,0.1,0.2,0.1,0.3,0.1s0.1-0.1,0.2-0.2c0.1-0.1,0.2-0.1,0.2-0.1
				c0,0.2,0,0.4,0.1,0.5c0,0.1,0.1,0.2,0.1,0.4c0,0.1,0,0.2,0.1,0.2c0.2,0.2,0.2,0.3,0,0.5c0,0-0.1,0.1-0.1,0.2c0,0,0.1,0.1,0.1,0.1
				c0,0,0.1,0,0.1,0c0.1,0,0.3,0,0.4,0c0,0.1-0.1,0.2-0.1,0.3c0,0.2-0.1,0.4-0.1,0.5c0,0.2,0,0.2,0.1,0.3c0.1,0,0.2,0.1,0.4,0.1
				c0.1,0.4,0,0.4-0.4,0.5c0,0.1-0.1,0.1-0.1,0.2c-0.1,0.2,0,0.3,0.1,0.3c0,0,0.1,0,0.2,0c0,0.1-0.1,0.2-0.1,0.3
				c-0.1,0.2-0.1,0.3,0,0.5c0,0,0,0,0,0.1c0,0.1-0.1,0.2-0.1,0.3c0,0.2-0.1,0.3-0.2,0.4c-0.1,0-0.1,0.1-0.2,0.2c0,0,0,0.1-0.1,0.2
				c0,0.1,0,0.1-0.1,0.2c0.1,0.1,0.2,0.1,0.4,0.2c0.1,0.1,0.2,0.1,0.3-0.1c0,0,0-0.1,0.1-0.1c0.2,0.1,0.4,0,0.6-0.1
				c0,0.3,0,0.3-0.4,0.7c0.3,0.1,0.4,0.2,0.3,0.5c-0.1,0-0.1-0.1-0.2-0.1c-0.1,0-0.1,0-0.2,0c0,0,0,0.1,0,0.2c0,0.1,0,0.1,0,0.2
				c0,0.4,0.2,0.7,0.2,1c0-0.1,0.1-0.3,0.1-0.5c0-0.4,0.1-0.5,0.5-0.5c0.1,0,0.3,0,0.4-0.2c0.1,0.1,0.1,0.2,0.1,0.3
				c0,0,0.1-0.1,0.1-0.1c0.1,0,0.1,0.1,0.2,0.1c0-0.1,0.1-0.1,0.1-0.1c0.1,0.1,0.2,0.1,0.4,0c0.2-0.1,0.2-0.5,0.1-0.7
				c0-0.1-0.1-0.2,0-0.2c0-0.1,0.1-0.1,0.2-0.1c0.1,0,0.3-0.1,0.4-0.1c0,0.1,0,0.2-0.1,0.3c0,0.1,0.1,0.2,0.1,0.3
				c0,0.1,0,0.1,0.1,0.2c0.1,0,0.1,0,0.2-0.1c0,0,0-0.1-0.1-0.1c-0.2-0.1-0.1-0.4-0.1-0.6c0-0.1,0.1-0.2,0.1-0.2c0,0,0.1,0,0.2,0
				c0,0,0.1,0.1,0.1,0.1c0,0,0.1,0,0.2-0.1c0,0,0,0.1,0.1,0.1c0.1,0.1,0.3,0.1,0.2,0.3c0,0,0,0,0,0c0.1,0.1,0.2,0.1,0.3,0.2
				c0.1-0.3,0.1-0.5,0-0.7c-0.1-0.2-0.1-0.5,0-0.7c0-0.1,0-0.1,0-0.2c0,0,0,0,0-0.1c0-0.2,0-0.2,0.2-0.3c0,0,0.1,0,0.1-0.1
				c0.2-0.2,0.3-0.2,0.5,0c0.2-0.2,0.4-0.2,0.5,0.1c0-0.1,0-0.1,0-0.2c0,0,0.1,0,0.2,0c0.1,0,0.1,0,0.2-0.1c0,0,0-0.1,0-0.2
				c0-0.1,0-0.1-0.1-0.2c-0.1-0.2,0.1-0.3,0-0.4c0,0,0,0,0-0.1c0-0.1,0.1-0.1,0.1-0.2c0.1-0.1,0.1-0.3,0.3-0.3
				c0.1,0,0.1-0.1,0.1-0.2c0-0.2,0.1-0.5,0-0.7c-0.1-0.1,0-0.2,0.1-0.3c0,0,0.1-0.1,0.2-0.1c0-0.1-0.1-0.2-0.1-0.4
				c0.3,0,0.4-0.3,0.4-0.5c0,0-0.1-0.1-0.1-0.1c0-0.1-0.1-0.2,0-0.2c0.2-0.2,0.1-0.3-0.1-0.5c0,0,0,0,0,0c0.1-0.2,0.2-0.3,0.3-0.4
				c0.1-0.2,0.3-0.2,0.4,0c0,0.1,0.1,0.2,0.2,0.2c0.2,0,0.3,0.1,0.4,0.3c0,0,0.1,0.1,0.1,0.1c0.2-0.2,0.5-0.3,0.7-0.2
				C31.1,20.9,31.1,20.9,30.8,20.7z M20.7,18.7c0,0,0-0.1,0-0.1c0.1,0,0.1,0,0.1,0.2C20.8,18.7,20.7,18.7,20.7,18.7z M21.9,26.8
				C21.9,26.8,21.9,26.8,21.9,26.8c-0.1,0-0.1-0.1-0.1-0.2c0-0.1,0.1-0.2,0.2-0.2c0.1,0,0.1,0.1,0.1,0.2
				C22.1,26.7,22.1,26.7,21.9,26.8C22,26.8,22,26.8,21.9,26.8z M28,18.9c0,0,0,0-0.1,0C27.9,18.9,27.9,18.9,28,18.9
				C27.9,18.9,27.9,18.9,28,18.9C28,18.9,28,18.9,28,18.9z"/>
			<path id="XMLID_00000112614524005214512490000016357720829104158613_" class="st1" d="M18.6,45c-0.1-0.2-0.2-0.2,0-0.4
				c0.1-0.1,0.1-0.2,0-0.3c-0.1-0.2-0.1-0.4-0.1-0.6c0-0.2,0-0.4-0.1-0.6c-0.1-0.1-0.2-0.2-0.3-0.3c0,0-0.2,0-0.2,0
				c-0.1,0.2,0.2,0.3,0.1,0.4c-0.2,0.1-0.3,0.2-0.5,0.3c0-0.2,0-0.5,0-0.7c0.1-0.1,0.3-0.3,0.5-0.5c0-0.3-0.1-0.5-0.1-0.8
				c0-0.2-0.1-0.3-0.3-0.2c-0.1,0-0.1,0.1-0.2,0.1c-0.1-0.2-0.3-0.3-0.4-0.5c0.1-0.1,0.2-0.1,0.3-0.2c0-0.2,0.2-0.2,0.2-0.4
				c0,0,0,0,0-0.1c-0.1-0.2-0.1-0.2,0-0.3c0.1-0.1,0.3-0.1,0.4-0.2c0-0.1-0.1-0.1-0.1-0.2c0-0.1,0.1-0.1,0.1-0.2
				c-0.1-0.1-0.2-0.3-0.4-0.2c0-0.1,0.1-0.3,0.1-0.4c-0.2-0.1-0.4-0.1-0.6-0.2c-0.1-0.3-0.1-0.3-0.4-0.3c0.1,0.4,0,0.8-0.3,1.1
				c0,0,0-0.1-0.1-0.1c-0.2-0.1-0.3-0.4-0.6-0.2c-0.1-0.2,0-0.4,0-0.5c0,0,0-0.1,0-0.1c-0.2-0.1-0.2-0.1-0.3,0.1
				c-0.1,0-0.1,0-0.2,0.1c0,0,0,0,0,0c-0.2,0.2-0.3,0.3-0.4,0.6c0,0-0.1,0.1-0.1,0.1c-0.1,0.1-0.2,0.2-0.1,0.4
				c0.1,0.1,0,0.2-0.1,0.2c-0.2,0-0.4,0.1-0.6,0.2c0.1,0.1,0.1,0.1,0.2,0.2c0.1,0.1,0.1,0.3-0.1,0.3c-0.1,0-0.1,0-0.1,0
				c-0.1,0.1-0.1,0.3-0.1,0.4c0,0.1,0.1,0.2,0.2,0.3c0.1,0.1,0.1,0.3,0.1,0.5c0,0.2-0.1,0.2-0.2,0.3c-0.1,0-0.1,0.2,0,0.3
				c0,0,0.1,0,0.1,0c0.2,0,0.2,0.2,0.3,0.3c0,0.1,0.1,0.4-0.1,0.4c0,0-0.1,0.1-0.1,0.1c0.1,0.4,0.4,0.2,0.6,0.2c0,0.3,0,0.3-0.1,0.3
				c-0.2,0.1-0.2,0.1-0.2,0.3c0,0,0,0.1,0,0.1c-0.1,0.1-0.2,0.1-0.2,0.2c-0.2,0.3-0.4,0.6-0.6,1c0,0.1-0.1,0.2,0,0.3
				c0,0,0.1,0.2,0.1,0.2c0,0.2,0,0.4,0.2,0.4c0,0,0,0-0.1,0.1c0,0.1,0,0.9,0.1,0.9c0.1,0.1,0.1,0.2,0.1,0.4c0,0,0,0.1,0,0.1
				c0,0.1,0.1,0.2,0.2,0.2c0.1,0,0.1-0.1,0.1-0.2c0-0.2,0-0.4,0.2-0.6c0.1-0.1,0.1-0.2,0.1-0.3c0,0,0-0.1,0-0.1
				c0.2-0.3,0.4-0.5,0.7-0.4c-0.1,0.1-0.1,0.1-0.2,0.1c-0.2,0.1-0.4,0.3-0.4,0.6c0,0.2,0,0.4-0.2,0.5c0,0,0,0.1-0.1,0.1
				c0,0.1,0,0.2,0.1,0.2c0.1,0.1,0.2,0,0.2-0.1c0-0.1,0.1-0.2,0.1-0.3c0.1-0.1,0.2-0.2,0.2-0.5c0-0.2,0.1-0.2,0.3-0.2
				c0.1,0,0.2,0,0.3,0c0.2,0,0.2-0.2,0.2-0.4c0,0,0,0,0-0.1c0.1,0,0.1-0.1,0.1-0.1v-0.2c0.2,0,0.3,0.3,0.4,0.4c0,0.1,0,0.2-0.1,0.2
				c-0.1,0-0.1,0.1-0.2,0.1c0,0.1,0.1,0.2,0.1,0.3c-0.2,0-0.4-0.1-0.6-0.1c-0.2,0.2-0.4,0.4-0.5,0.6c0,0.1,0.1,0.2,0.1,0.2
				c0,0,0,0.1,0,0.1c-0.1,0.2-0.1,0.3,0.1,0.4c0.1,0.1,0.1,0.1,0.1,0.3c-0.1,0.2-0.1,0.3,0,0.5c0,0,0,0.1,0.1,0.2
				c-0.1,0.1-0.3,0.1-0.4,0.2c0.2,0.1,0.4,0.2,0.6,0.2c0-0.1,0.1-0.2,0.1-0.3c0.1,0,0.2,0,0.3,0.1c0.1-0.1,0.2-0.3,0.3-0.4
				c0.1-0.2,0.1-0.2,0-0.3c-0.1-0.1-0.1-0.2-0.1-0.3c0.1-0.2,0.2-0.4,0.2-0.7c0,0,0-0.1,0-0.1c0.2-0.1,0.3-0.3,0.4-0.4
				c0.2-0.2,0.2-0.2,0-0.5c-0.1-0.1-0.1-0.2,0.1-0.2c0.1,0,0.1-0.1,0.2-0.1c0.1-0.1,0.1-0.2,0-0.3c-0.1-0.1-0.1-0.1-0.2-0.2
				c-0.1-0.1-0.1-0.2,0-0.2c0.2-0.1,0.2-0.3,0.2-0.5c0.1,0.1,0.3,0.1,0.4,0.1c0,0.1,0,0.1,0,0.2c0,0.1-0.1,0.1-0.1,0.2
				c0,0,0.1,0,0.1,0.1c0,0.2-0.1,0.3-0.1,0.5c0,0.2-0.1,0.3-0.2,0.5c0,0,0,0,0,0.1c0,0.1,0.1,0.2,0.2,0.1c0,0,0.1-0.1,0.1-0.1
				c0-0.1,0.1-0.1,0.1-0.2c0.2-0.1,0.2-0.3,0.2-0.6c0-0.1,0-0.1-0.1-0.3c0.1,0,0.2,0,0.3,0c0.1-0.2,0.2-0.2,0.4-0.1
				C18.5,45.6,18.5,45.3,18.6,45C18.6,45,18.6,45,18.6,45z M16.8,39.1C16.7,39.1,16.7,39.1,16.8,39.1c0-0.1,0-0.1,0-0.1
				C16.8,39,16.8,39.1,16.8,39.1C16.8,39.1,16.8,39.1,16.8,39.1z"/>
			<path id="XMLID_00000165917503298367860830000017104038077130348476_" class="st1" d="M20.3,44.3c0,0,0,0,0.1-0.1
				c-0.2-0.2-0.4-0.4-0.5-0.7c-0.1-0.2-0.2-0.3-0.2-0.6c0-0.1,0-0.2,0-0.2c0-0.1-0.1-0.3-0.2-0.4c0,0-0.1-0.1-0.1-0.2
				c0-0.1,0-0.1,0-0.2c-0.1-0.2-0.2-0.5-0.3-0.7c0,0-0.1-0.1-0.1-0.1c0,0-0.1,0-0.2,0c-0.2,0-0.2,0-0.3,0.2c0,0.1,0,0.2,0,0.2
				c0,0.1-0.1,0.2-0.1,0.3c0,0.1,0,0.2,0,0.4c0,0,0,0,0.1,0.1c0.3,0.2,0.5,0.5,0.6,0.8c0.1,0.1,0.1,0.3,0.3,0.4
				c-0.1,0.2-0.1,0.4,0,0.5c0,0,0,0.1,0,0.1c0,0.1,0,0.1,0,0.1c0,0,0,0.1,0,0.1c0.1,0.1,0.2,0.1,0.2,0.3c0,0.1,0,0.2-0.2,0.3
				c-0.1,0-0.1,0.2,0,0.2c0.1,0.1,0.1,0.2,0.1,0.4c0,0.1-0.1,0.3-0.1,0.4c-0.2,0-0.3,0-0.3,0.2c-0.1,0.1-0.1,0.2,0,0.4
				c0,0,0,0.1,0,0.2c0,0.2,0,0.3,0,0.5c0.1,0,0.1-0.3,0.3-0.2c0,0.1,0,0.1,0,0.2c0,0.1,0,0.1,0,0.2c-0.3,0.2-0.3,0.3-0.3,0.5
				c0.1,0,0.2-0.2,0.3-0.3c0.1-0.2,0.2-0.4,0.4-0.4c0.1,0,0.2-0.3,0.1-0.4c-0.1-0.2-0.1-0.2,0-0.4c0-0.1,0.1-0.1,0.2-0.2
				c0.1-0.1,0.1-0.1,0.1-0.3c0-0.3,0-0.6,0-0.9c0-0.1,0-0.2-0.1-0.2C20.1,44.7,20.1,44.5,20.3,44.3z M19.1,42.9
				C19.1,42.9,19.1,42.9,19.1,42.9c0-0.1,0-0.1,0.1-0.1C19.2,42.8,19.2,42.8,19.1,42.9C19.2,42.8,19.2,42.9,19.1,42.9z"/>
			<path id="XMLID_00000039839733708230668800000001764271795542602151_" class="st1" d="M22.9,46.2c-0.1,0-0.2,0-0.2-0.1
				c0,0.1,0,0.1,0,0.2c0,0,0,0.1,0,0.1c0,0.2,0,0.3-0.1,0.4c-0.2,0.1-0.3,0.5-0.6,0.3c0.2-0.2,0.2-0.6,0.4-0.7c0-0.2,0-0.3,0-0.5
				c0-0.2,0-0.4,0-0.6c0-0.1,0-0.3,0.1-0.4c0,0,0-0.1,0.1-0.2c0,0.2,0,0.3,0.1,0.5c0.2-0.1,0.3,0,0.3,0.2c0,0.2,0,0.3,0,0.5
				C22.9,46,22.9,46.1,22.9,46.2z"/>
			<path id="XMLID_00000080200641497986163960000015703214251360357823_" class="st1" d="M28.8,51.9c-0.1-0.1-0.1-0.2,0-0.3
				c0.1-0.1,0.1-0.2,0-0.3c-0.1-0.1-0.1,0-0.2,0c0,0,0,0-0.1,0.1c0-0.2,0-0.3,0-0.4c-0.1,0-0.1,0.1-0.2,0.1c0-0.1,0-0.2,0-0.3
				c0,0,0-0.1,0-0.1c0,0-0.1,0.1-0.1,0.1c0,0.1,0,0.2,0,0.4c0,0.1,0,0.1,0,0.2c0,0.2,0,0.5,0.2,0.7c0.1,0.1,0,0.2,0,0.2
				c0,0-0.1,0.1-0.2,0.1c0,0,0,0.1,0,0.2c0,0,0.1,0,0.1,0c0.1-0.1,0.2-0.1,0.4-0.1c0,0,0.1,0,0.2-0.1c0-0.1,0.1-0.3,0.1-0.4
				C28.9,52,28.8,51.9,28.8,51.9z M28.5,51.6C28.5,51.6,28.5,51.6,28.5,51.6C28.5,51.6,28.5,51.6,28.5,51.6
				C28.5,51.6,28.5,51.6,28.5,51.6C28.5,51.6,28.5,51.6,28.5,51.6z"/>
			<path id="XMLID_00000168812232762492670120000003726758150685139077_" class="st1" d="M19,40.5c-0.1,0-0.2,0-0.3,0
				c-0.1,0-0.3,0-0.4,0.1c-0.1,0.2-0.3,0.1-0.5,0.2c0-0.2,0-0.3-0.1-0.5c-0.1-0.1,0-0.2,0.1-0.2c0.2,0,0.3,0,0.5-0.1
				c0.1-0.1,0.3,0,0.4,0.1C18.8,40.2,18.9,40.3,19,40.5C19,40.5,19,40.5,19,40.5z"/>
			<path id="XMLID_00000078741151690025384850000017249042778833845127_" class="st1" d="M25.1,42.8c0.4,0.3,0.4,0.7,0.5,1.2
				c0,0,0.1,0.1,0.2,0.1c0,0.1,0,0.2-0.1,0.3c-0.1,0.1-0.1,0.1-0.2,0c-0.1-0.2-0.2-0.3-0.4-0.4c0,0-0.1-0.1-0.1-0.2
				c0-0.1,0-0.2-0.1-0.3c0,0,0-0.1,0-0.1C25,43,25,42.9,25.1,42.8z"/>
			<path id="XMLID_00000163784633650398503650000014641434443737186731_" class="st1" d="M2.2,5.7c0.1,0,0.1-0.1,0.2-0.1
				c0,0.2,0,0.4-0.2,0.4C2.1,6.1,2,5.9,1.9,5.8c-0.3,0.1-0.3,0-0.2-0.3c0-0.2,0.1-0.4,0.2-0.7C1.9,4.9,2,4.9,2,5
				C2,5.2,2.1,5.4,2.2,5.7z"/>
			<path id="XMLID_00000067208133711428537520000017331052179095123383_" class="st1" d="M14.9,48.8c0,0.2-0.1,0.5-0.3,0.5
				c0,0-0.1,0-0.1,0c0,0,0-0.1,0-0.1c0,0,0.1-0.1,0.1-0.1c0.1-0.1,0.1-0.1,0.1-0.3c0,0,0-0.1,0-0.1c0-0.1,0-0.2,0.1-0.2
				c0.1,0,0.1,0,0.2,0.1C14.8,48.6,14.8,48.7,14.9,48.8z"/>
			<path id="XMLID_00000150098740412821954520000008454213136794717581_" class="st1" d="M18.4,38.6C18.4,38.6,18.5,38.6,18.4,38.6
				c0.2,0.1,0.3,0.2,0.4,0.4c0,0,0,0.1,0,0.2c0,0-0.1,0-0.1,0c-0.1-0.1-0.2,0-0.3,0c-0.1,0-0.2-0.1-0.2-0.2
				C18.2,38.8,18.3,38.6,18.4,38.6z"/>
			<path id="XMLID_00000062184812365938506990000002263186521583814533_" class="st1" d="M17.6,48.5c-0.1,0.1-0.2,0.2-0.4,0.4
				c-0.1-0.2-0.1-0.4,0-0.4C17.4,48.3,17.5,48.4,17.6,48.5z"/>
			<path class="st1" d="M18,35.6c-0.1,0.2-0.1,0.2-0.3,0.1c-0.1-0.1-0.2-0.1-0.2-0.4C17.8,35.4,17.9,35.5,18,35.6z"/>
			<path id="XMLID_00000034085082759953801340000011903769008476681138_" class="st1" d="M29,51.2c0-0.3,0.1-0.5-0.2-0.6
				c0.1-0.1,0.2-0.1,0.3-0.1c0.1,0,0.1,0.1,0.1,0.2C29.2,50.9,29.2,51.1,29,51.2z"/>
			<path id="XMLID_00000171698712851085738680000012559179374421974707_" class="st1" d="M18.5,48.5c0,0.1-0.1,0.2-0.1,0.2
				c0,0.1-0.1,0.1-0.1,0.1c0,0-0.1,0-0.1,0c0-0.1,0-0.1,0-0.2C18.2,48.6,18.3,48.5,18.5,48.5z"/>
			<path id="XMLID_00000097462201985287177400000016433690159207454879_" class="st1" d="M17.9,47.5c0.1-0.2,0.3-0.3,0.5-0.3
				c0,0,0,0,0,0.1c0,0.1,0,0.1,0,0.1C18.2,47.4,18,47.4,17.9,47.5z"/>
			<path id="XMLID_00000005981333825787855580000008016739434917339579_" class="st1" d="M23.1,43.5c-0.1,0.1-0.2,0.2-0.3,0.3
				c0,0-0.1-0.1-0.1-0.1C22.7,43.6,22.9,43.5,23.1,43.5z"/>
			<path id="XMLID_00000101782983967348416150000012489347755897023925_" class="st1" d="M31.3,58.6c-0.2,0-0.3-0.2-0.3-0.3
				c0,0,0-0.1,0-0.1s0.1,0,0.1,0C31.2,58.4,31.3,58.5,31.3,58.6z"/>
			<path id="XMLID_00000009565970017946197710000005173593315369214639_" class="st1" d="M21.2,46.3c0,0.2,0.1,0.4,0,0.5
				C21.1,46.7,21.1,46.6,21.2,46.3z"/>
			<path id="XMLID_00000016760011908543207920000002723281674596254092_" class="st1" d="M8.3,51.2c0.1-0.1,0.2-0.3,0.3-0.4
				c0,0.1,0,0.2,0,0.3C8.5,51.3,8.5,51.3,8.3,51.2z"/>
			<path id="XMLID_00000132071244068104546650000014514536105577417614_" class="st1" d="M27.5,45.2c-0.1-0.2,0-0.3,0.1-0.3
				c0,0,0.1,0,0.1,0c0,0,0,0.1,0,0.1C27.6,45.1,27.5,45.1,27.5,45.2z"/>
			<path id="XMLID_00000052788395671118632320000010542823470497885574_" class="st1" d="M21.5,45.1c0.1,0.2,0,0.3-0.1,0.4
				C21.4,45.4,21.4,45.2,21.5,45.1z"/>
			<path id="XMLID_00000003802383248024873660000009352337797866011837_" class="st1" d="M7.5,50.5c0,0-0.1-0.1-0.1-0.1
				c0,0,0-0.1,0-0.1c0,0,0.1,0,0.1,0C7.6,50.3,7.6,50.4,7.5,50.5z"/>
			<path id="XMLID_00000085949562431280673050000003107167147519666059_" class="st1" d="M18.3,47.7c0,0.2-0.1,0.2-0.3,0.2
				C18,47.8,18.1,47.7,18.3,47.7z"/>
			<path id="XMLID_00000138566125412298201030000005253245512187473292_" class="st1" d="M31.4,58.8c0,0.2,0.1,0.3,0.1,0.4
				C31.3,59,31.3,59,31.4,58.8z"/>
			<path id="XMLID_00000070080583423773735140000010387388279692233363_" class="st1" d="M10.7,47.6c0,0.1,0,0.2,0,0.3
				C10.6,47.8,10.6,47.7,10.7,47.6z"/>
			<path id="XMLID_00000098180801401985223600000007665113273741254589_" class="st1" d="M12.5,16.4c0,0.1,0,0.1,0,0.2
				c0,0-0.1,0-0.1,0c0,0-0.1-0.1,0-0.1C12.4,16.5,12.4,16.5,12.5,16.4C12.5,16.4,12.5,16.4,12.5,16.4z"/>
			<path id="XMLID_00000173870990880969661070000010238407590947526582_" class="st1" d="M28.1,49.3c-0.1-0.1-0.1-0.2,0-0.3
				C28.2,49.2,28.2,49.2,28.1,49.3C28.2,49.3,28.2,49.3,28.1,49.3z"/>
			<path class="st1" d="M22.8,32.6c0,0.1-0.1,0.1-0.1,0C22.7,32.5,22.7,32.5,22.8,32.6C22.8,32.5,22.8,32.5,22.8,32.6z"/>
			<path id="XMLID_00000062181938194984738800000003713630667729017753_" class="st1" d="M9.5,10.8c-0.1-0.1-0.1-0.1-0.1-0.2
				C9.5,10.6,9.5,10.7,9.5,10.8z"/>
			<path id="XMLID_00000101809348837021711600000005005093737798493071_" class="st1" d="M18.9,47.5C18.8,47.5,18.8,47.5,18.9,47.5
				c-0.1,0-0.1,0-0.1,0C18.7,47.5,18.8,47.4,18.9,47.5C18.8,47.4,18.8,47.5,18.9,47.5z"/>
			<path id="XMLID_00000128465930313538142520000003976562185794728103_" class="st1" d="M27.9,50.1c0-0.1,0-0.1,0-0.2c0,0,0,0,0,0
				C28,50,28,50,27.9,50.1C28,50.1,28,50.1,27.9,50.1C28,50.1,28,50.1,27.9,50.1z"/>
			<path id="XMLID_00000087386617935634183660000010779817163863015871_" class="st1" d="M28.6,50.3c0,0.1,0,0.1,0,0.2c0,0,0,0,0,0
				C28.5,50.4,28.5,50.4,28.6,50.3C28.5,50.3,28.6,50.3,28.6,50.3z"/>
			<path id="XMLID_00000084523564181722319290000009694918933534216857_" class="st1" d="M16.7,48.9C16.7,48.9,16.7,49,16.7,48.9
				C16.7,49,16.6,48.9,16.7,48.9C16.6,48.9,16.6,48.9,16.7,48.9C16.7,48.9,16.7,48.9,16.7,48.9z"/>
			<path id="XMLID_00000067238268200805878650000008208000856796822407_" class="st1" d="M18,41.1C18,41.1,18,41.2,18,41.1
				C17.9,41.1,17.9,41.1,18,41.1C17.9,41.1,18,41.1,18,41.1C18,41.1,18,41.1,18,41.1z"/>
			<path id="XMLID_00000105391486489125856960000008427507668182165936_" class="st1" d="M23.8,41.5c0,0,0.1,0,0.1,0c0,0,0,0,0,0
				C23.9,41.5,23.9,41.6,23.8,41.5C23.8,41.6,23.8,41.5,23.8,41.5z"/>
			<path id="XMLID_00000134946907949628236980000014609782477283699595_" class="st1" d="M13.2,41.1c0.1,0,0.2,0,0.2,0.2
				C13.3,41.2,13.2,41.2,13.2,41.1L13.2,41.1z"/>
			<path id="XMLID_00000093860630832991550080000012571439566749743529_" class="st1" d="M16.9,48.4c0,0.1,0,0.1-0.1,0.1
				C16.8,48.4,16.8,48.4,16.9,48.4C16.8,48.4,16.9,48.4,16.9,48.4z"/>
			<path id="XMLID_00000016075158277576582580000003600853440279052450_" class="st1" d="M27.7,45.7C27.7,45.7,27.7,45.7,27.7,45.7
				C27.7,45.7,27.7,45.7,27.7,45.7C27.7,45.7,27.7,45.7,27.7,45.7C27.7,45.7,27.7,45.7,27.7,45.7z"/>
		</g>
		<ellipse class="st0" cx="14.4" cy="29.5" rx="6.5" ry="7.4"/>
	</g>
</g>
</svg>
